<?xml version="1.0" encoding="UTF-8"?>
<svg version="1.1" xmlns="http://www.w3.org/2000/svg" width="150" height="100">
<path d="M0 0 C11.25105244 6.94008217 19.38711585 16.87217407 23.15307617 29.63720703 C25.36197366 40.23941663 24.74648595 53.17011254 19.5859375 62.71484375 C19.07675781 63.65714844 18.56757812 64.59945312 18.04296875 65.5703125 C11.35971036 76.90279411 1.3842129 84.52770564 -11.34301758 88.28417969 C-24.25819039 90.9698292 -37.47631452 89.13860534 -48.69921875 82.328125 C-50.73328033 80.89761927 -52.5641731 79.37540545 -54.4140625 77.71484375 C-55.09082031 77.14121094 -55.76757812 76.56757812 -56.46484375 75.9765625 C-64.66691154 68.51592457 -70.06975899 57.71962899 -70.78515625 46.5859375 C-71.14761136 33.50673745 -69.20173511 22.01752812 -60.35546875 11.73828125 C-44.10798551 -5.19571536 -21.49982835 -11.4457015 0 0 Z M-11.50634766 9 C-12.56729645 9.28029053 -13.62824524 9.56058105 -14.72134399 9.84936523 C-15.87033173 10.15559814 -17.01931946 10.46183105 -18.203125 10.77734375 C-19.96346573 11.24346069 -19.96346573 11.24346069 -21.7593689 11.71899414 C-25.51988311 12.71530262 -29.27947738 13.71503567 -33.0390625 14.71484375 C-35.58327363 15.3895481 -38.12754371 16.06403018 -40.671875 16.73828125 C-46.91995806 18.39455371 -53.16728853 20.05364121 -59.4140625 21.71484375 C-57.00103235 27.94406786 -53.45857521 33.32012444 -49.9140625 38.96484375 C-49.22441406 40.07859375 -48.53476562 41.19234375 -47.82421875 42.33984375 C-46.83228516 43.92539063 -46.83228516 43.92539063 -45.8203125 45.54296875 C-44.91249023 46.99558105 -44.91249023 46.99558105 -43.98632812 48.47753906 C-42.60742019 50.81594059 -42.60742019 50.81594059 -40.4140625 51.71484375 C-39.90359375 51.08320312 -39.393125 50.4515625 -38.8671875 49.80078125 C-34.45563194 44.37237777 -29.98007044 39.01345201 -25.4140625 33.71484375 C-18.13763554 25.2613816 -10.99731064 16.72485787 -4.4140625 7.71484375 C-6.94907167 7.71484375 -9.05176014 8.34854549 -11.50634766 9 Z M6.77905273 40.89233398 C5.80471786 41.14937607 4.830383 41.40641815 3.82652283 41.67124939 C2.77646561 41.95247147 1.72640839 42.23369354 0.64453125 42.5234375 C-0.43408676 42.80961441 -1.51270477 43.09579132 -2.62400818 43.39064026 C-4.90500247 43.99669168 -7.18551355 44.60456421 -9.46557617 45.21411133 C-12.96480068 46.14920067 -16.46565466 47.07797918 -19.96679688 48.00585938 C-22.17978691 48.5946786 -24.39268086 49.18385908 -26.60546875 49.7734375 C-27.6575502 50.05263535 -28.70963165 50.33183319 -29.79359436 50.61949158 C-30.76477707 50.87968582 -31.73595978 51.13988007 -32.73657227 51.40795898 C-33.59356216 51.63668198 -34.45055206 51.86540497 -35.33351135 52.10105896 C-37.44814527 52.65861213 -37.44814527 52.65861213 -39.4140625 53.71484375 C-37.7413105 58.66462453 -34.95230642 62.75883306 -32.1015625 67.08984375 C-31.62783203 67.81945312 -31.15410156 68.5490625 -30.66601562 69.30078125 C-27.69248333 73.85667205 -24.60524021 78.30880967 -21.4140625 82.71484375 C-13.74096583 75.12337577 -6.62936768 67.10520045 0.13671875 58.69921875 C2.0008318 56.42779551 3.8883086 54.19656929 5.81640625 51.98046875 C6.36828613 51.34536377 6.92016602 50.71025879 7.48876953 50.0559082 C8.58072495 48.80348449 9.67665618 47.55451424 10.77685547 46.30932617 C13.63190149 43.43301794 13.63190149 43.43301794 14.5859375 39.71484375 C11.66981363 39.71484375 9.58090934 40.14783563 6.77905273 40.89233398 Z " fill="#283F9A" transform="translate(97.4140625,8.28515625)"/>
</svg>
