<?xml version="1.0" encoding="UTF-8"?>
<svg version="1.1" xmlns="http://www.w3.org/2000/svg" width="576" height="576">
<path d="M0 0 C1.9453125 -0.29296875 1.9453125 -0.29296875 4.125 -0.1875 C5.40375 -0.125625 6.6825 -0.06375 8 0 C8 0.33 8 0.66 8 1 C8.98742187 0.98839844 9.97484375 0.97679688 10.9921875 0.96484375 C12.27351563 0.95582031 13.55484375 0.94679687 14.875 0.9375 C16.15117187 0.92589844 17.42734375 0.91429688 18.7421875 0.90234375 C22 1 22 1 24 2 C24 1.34 24 0.68 24 0 C45.63132519 -0.57009169 66.23053349 1.65195825 87.5 5.5 C88.61544189 5.70133545 89.73088379 5.9026709 90.88012695 6.11010742 C96.42526156 7.1603255 101.69315503 8.43909527 107.01171875 10.32617188 C110.90794706 11.64660288 114.95952757 12.33961429 118.984375 13.15625 C122.09460136 14.02646878 124.27435652 15.30147503 127 17 C129.24567339 17.80234908 129.24567339 17.80234908 131.5625 18.375 C153.10043772 24.57817797 174.70470169 36.17535462 193 49 C194.05703125 49.72832031 195.1140625 50.45664062 196.203125 51.20703125 C210.6037478 61.22301687 223.3704473 72.85754626 236 85 C236.60440918 85.58104492 237.20881836 86.16208984 237.83154297 86.76074219 C244.24069167 92.95809175 250.27940731 99.25556968 255.8203125 106.2578125 C258.16804865 109.21141605 260.61144678 112.06924623 263.0625 114.9375 C267.13148927 119.80642988 270.71223047 124.84023865 274.15234375 130.16796875 C275.77816093 132.65997182 277.48536522 135.04354969 279.25 137.4375 C299.2646385 165.91810053 312.36405516 201.37396718 316 236 C316.11085938 237.00417969 316.22171875 238.00835937 316.3359375 239.04296875 C317.27066631 249.00919893 317.08971787 259.0014419 317 269 C316.01 268.01 315.02 267.02 314 266 C313.34 266.66 312.68 267.32 312 268 C311.29925156 264.846632 311 262.27275026 311 259 C310.01 258.67 309.02 258.34 308 258 C307.34 257.01 306.68 256.02 306 255 C305.34 255.66 304.68 256.32 304 257 C303.34 255.68 302.68 254.36 302 253 C303 254 303 254 303.1875 257.75 C303.15615249 261.23584286 302.57760458 263.84479083 301 267 C298.35298978 265.67649489 297.95642882 264.79571502 297 262 C297.32205743 259.66508361 297.65458149 257.33157492 298 255 C297.34 254.34 296.68 253.68 296 253 C295.73008094 250.31160615 295.91262643 247.70858064 296 245 C295.34 245 294.68 245 294 245 C293.67 247.97 293.34 250.94 293 254 C292.34 253.67 291.68 253.34 291 253 C291.33 252.34 291.66 251.68 292 251 C289.65026182 252.89755144 289.65026182 252.89755144 289.875 256.125 C289.91625 257.07375 289.9575 258.0225 290 259 C287.86413322 255.79619983 287.76867825 254.98060033 287.875 251.3125 C287.89304687 250.50425781 287.91109375 249.69601563 287.9296875 248.86328125 C287.96449219 247.94095703 287.96449219 247.94095703 288 247 C285.69897408 248.87448462 285.69897408 248.87448462 285.734375 251.90625 C285.76600672 259.18154599 286.17867591 265.94236914 288 273 C288.78375 273.103125 289.5675 273.20625 290.375 273.3125 C293 274 293 274 295 277 C295.33 277.66 295.66 278.32 296 279 C296.66 279 297.32 279 298 279 C297.67 276.69 297.34 274.38 297 272 C297.66 272.33 298.32 272.66 299 273 C299 271.68 299 270.36 299 269 C298.34 269 297.68 269 297 269 C297.33 268.01 297.66 267.02 298 266 C300 267.1875 300 267.1875 302 269 C302.25 271.6875 302.25 271.6875 302 274 C302.66 274 303.32 274 304 274 C304 274.99 304 275.98 304 277 C303.34 277 302.68 277 302 277 C302 278.65 302 280.3 302 282 C301.34 282 300.68 282 300 282 C300.0928125 283.175625 300.0928125 283.175625 300.1875 284.375 C300.0946875 285.674375 300.0946875 285.674375 300 287 C299.01 287.66 298.02 288.32 297 289 C295.875 285.25 295.875 285.25 297 283 C296.34 283 295.68 283 295 283 C294.67 283.99 294.34 284.98 294 286 C294 285.34 294 284.68 294 284 C293.34 284 292.68 284 292 284 C292 283.01 292 282.02 292 281 C292.66 281 293.32 281 294 281 C294 280.34 294 279.68 294 279 C292.68 279.33 291.36 279.66 290 280 C289.34 278.35 288.68 276.7 288 275 C287.38125 276.2065625 287.38125 276.2065625 286.75 277.4375 C285 280 285 280 282.9375 280.9375 C281.9784375 280.9684375 281.9784375 280.9684375 281 281 C278.53933038 278.53933038 278.44855149 277.06831011 277.75 273.6875 C276.32229403 267.56981692 273.97715154 262.23830751 271.20703125 256.6171875 C270 254 270 254 270 252 C269.01 251.67 268.02 251.34 267 251 C267 250.34 267 249.68 267 249 C266.34 249.33 265.68 249.66 265 250 C265.33 251.65 265.66 253.3 266 255 C262.50071836 252.66714557 262.3670902 251.79204931 261.3125 247.875 C260.93544922 246.50988281 260.93544922 246.50988281 260.55078125 245.1171875 C260.27814453 244.06917969 260.27814453 244.06917969 260 243 C260 245.64 260 248.28 260 251 C257.43135272 249.71567636 257.053461 248.63365249 256 246 C256 244.68 256 243.36 256 242 C254.68 242.33 253.36 242.66 252 243 C251.67 241.68 251.34 240.36 251 239 C251.66 239 252.32 239 253 239 C253 236.69 253 234.38 253 232 C252.34 232 251.68 232 251 232 C251 231.34 251 230.68 251 230 C251.66 230 252.32 230 253 230 C253.66 228.02 254.32 226.04 255 224 C254.01 223.67 253.02 223.34 252 223 C251.30341637 221.34561387 250.63903117 219.67745682 250 218 C249.1646875 217.2265625 249.1646875 217.2265625 248.3125 216.4375 C247.879375 215.963125 247.44625 215.48875 247 215 C247.165 214.360625 247.33 213.72125 247.5 213.0625 C248.26162513 210.92997868 248.26162513 210.92997868 246.875 208.9375 C245.0546051 206.8536021 245.0546051 206.8536021 242.375 205.625 C240 204 240 204 239.1875 200.8125 C239.0946875 199.4203125 239.0946875 199.4203125 239 198 C238.34 198 237.68 198 237 198 C237 196.68 237 195.36 237 194 C236.34 194 235.68 194 235 194 C234.71125 193.030625 234.4225 192.06125 234.125 191.0625 C233.35785318 187.89335797 233.35785318 187.89335797 231 187 C230.375 184.9375 230.375 184.9375 230 183 C229.34 183 228.68 183 228 183 C228 182.34 228 181.68 228 181 C226.68 181 225.36 181 224 181 C223.34 182.65 222.68 184.3 222 186 C218.26757722 182.62304606 216.20679356 179.47340413 215.5 174.4375 C214.98454289 170.89373237 214.25789182 169.65056865 212 167 C212 166.34 212 165.68 212 165 C210.68 165 209.36 165 208 165 C206.95994298 161.61981469 206.91995518 158.5219721 207 155 C205.68 155.33 204.36 155.66 203 156 C202.01 154.35 201.02 152.7 200 151 C200 151.66 200 152.32 200 153 C196.94839391 151.62736637 194.75173068 150.04043427 192.328125 147.7421875 C191.66425781 147.11699219 191.00039063 146.49179688 190.31640625 145.84765625 C189.63449219 145.19667969 188.95257813 144.54570312 188.25 143.875 C187.55261719 143.21628906 186.85523438 142.55757812 186.13671875 141.87890625 C184.42049511 140.25672226 182.70846565 138.63034621 181 137 C183.61096979 140.38064342 186.33980913 143.37586758 189.4375 146.3125 C193.32470687 150.14839061 196.63484682 154.043875 199 159 C199 159.66 199 160.32 199 161 C198.01 161.33 197.02 161.66 196 162 C195.566875 161.2575 195.13375 160.515 194.6875 159.75 C193.22609253 157.36844709 191.81137526 155.12639705 190 153 C189.34 153 188.68 153 188 153 C187.67 152.21625 187.34 151.4325 187 150.625 C184.49618305 145.54408365 180.60097258 141.3280098 177 137 C176.34 137.66 175.68 138.32 175 139 C174.835 138.319375 174.67 137.63875 174.5 136.9375 C172.5871566 133.191515 170.00481781 131.18295268 166.77734375 128.55078125 C165 127 165 127 164 125 C161.47266765 124.34444881 161.47266765 124.34444881 159 124 C159 123.01 159 122.02 159 121 C158.2575 120.938125 157.515 120.87625 156.75 120.8125 C153.17108348 119.75509285 152.24473375 117.89643064 150 115 C147.87053397 114.13034494 147.87053397 114.13034494 146 114 C146 113.34 146 112.68 146 112 C145.29875 111.731875 144.5975 111.46375 143.875 111.1875 C141 110 141 110 137.875 108.375 C135.08008076 106.78427225 135.08008076 106.78427225 132 107 C132.33 106.34 132.66 105.68 133 105 C132.46375 105.185625 131.9275 105.37125 131.375 105.5625 C127.70183645 106.23913539 124.33551599 105.66775799 121 104 C121 103.34 121 102.68 121 102 C119.96875 101.896875 118.9375 101.79375 117.875 101.6875 C114.02835161 101.00503012 111.38727425 99.89057168 108 98 C107.34 97.67 106.68 97.34 106 97 C105.01 96.34 104.02 95.68 103 95 C103.66 95 104.32 95 105 95 C104.82794448 93.03667618 104.82794448 93.03667618 104 91 C100.37858512 88.99475375 96.30977243 88 92.1875 88 C89.29268253 88 88.11601593 86.88090305 86 85 C85.67 86.65 85.34 88.3 85 90 C84.67 89.34 84.34 88.68 84 88 C82.68 88.33 81.36 88.66 80 89 C80.33 88.01 80.66 87.02 81 86 C81.66 85.67 82.32 85.34 83 85 C74.51844985 82.98378364 66.17695715 81.52982469 57.51196289 80.64697266 C52.18672347 80.09336174 52.18672347 80.09336174 50 79 C50 79.66 50 80.32 50 81 C49.34 80.67 48.68 80.34 48 80 C8.32686565 77.87817814 -30.72188182 87.43098061 -66.12109375 104.74902344 C-66.98476562 105.16958008 -67.8484375 105.59013672 -68.73828125 106.0234375 C-69.51212158 106.40419434 -70.28596191 106.78495117 -71.08325195 107.17724609 C-73 108 -73 108 -75 108 C-75 108.66 -75 109.32 -75 110 C-77.05552416 111.46562522 -79.10271999 112.80591276 -81.25 114.125 C-82.53560051 114.93419045 -83.82074869 115.74409992 -85.10546875 116.5546875 C-86.08265869 117.16715332 -86.08265869 117.16715332 -87.07958984 117.79199219 C-89.92669419 119.58292434 -92.74876926 121.40688372 -95.5625 123.25 C-96.49191406 123.85328125 -97.42132813 124.4565625 -98.37890625 125.078125 C-101.21102544 127.15473102 -103.54139585 129.49965385 -106 132 C-107.31836295 132.69580267 -108.64791086 133.37224433 -110 134 C-110.33 134.66 -110.66 135.32 -111 136 C-111.66 136 -112.32 136 -113 136 C-113.12375 136.61875 -113.2475 137.2375 -113.375 137.875 C-114 140 -114 140 -116 142 C-116.99 142 -117.98 142 -119 142 C-119.0825 142.598125 -119.165 143.19625 -119.25 143.8125 C-120.21576779 146.62932273 -121.48868567 147.47799132 -124 149 C-124.66 149 -125.32 149 -126 149 C-126.268125 149.58007812 -126.53625 150.16015625 -126.8125 150.7578125 C-128.02259997 153.0426723 -129.3749125 154.86707939 -131 156.875 C-142.08325989 170.93069341 -151.87875635 185.29086976 -158.4140625 202.03125 C-159.6376325 205.15961295 -161.03619136 208.13071299 -162.5625 211.125 C-174.44615485 237.27685886 -175.68688823 268.75402254 -176 297 C-176.01393799 297.98081543 -176.02787598 298.96163086 -176.04223633 299.97216797 C-176.17707262 316.01360048 -172.81177099 332.20725142 -167.76953125 347.390625 C-167 350 -167 350 -167 353 C-166.34 353 -165.68 353 -165 353 C-164.20788071 354.89564426 -163.41632424 356.79152371 -162.625 358.6875 C-162.18414062 359.74324219 -161.74328125 360.79898437 -161.2890625 361.88671875 C-160.48228376 363.83521166 -159.70173169 365.79500839 -158.9609375 367.76953125 C-158.09970181 370.146715 -158.09970181 370.146715 -156 372 C-155.31526605 374.32809543 -154.65146849 376.66237777 -154 379 C-152.73366877 382.40882676 -151.61291385 385.38708615 -149 388 C-149 388.99 -149 389.98 -149 391 C-148.01 391.33 -147.02 391.66 -146 392 C-144.66530854 394.12781189 -143.47533883 396.21910806 -142.3125 398.4375 C-139.2018024 404.16294436 -135.73538987 409.15350868 -131.46875 414.109375 C-130 416 -130 416 -130 418 C-129.01 418.33 -128.02 418.66 -127 419 C-125.31640625 420.890625 -125.31640625 420.890625 -123.5625 423.25 C-122.94375 424.06726563 -122.325 424.88453125 -121.6875 425.7265625 C-120.47681125 427.35762929 -119.26878726 428.99067532 -118.0625 430.625 C-115.02576097 434.12185101 -111.52619624 437.00908972 -108 440 C-107.45472656 440.48339844 -106.90945312 440.96679688 -106.34765625 441.46484375 C-101.63303093 445.62616341 -96.57931355 449.28359485 -91.4765625 452.94921875 C-89 455 -89 455 -88 458 C-87.34 457.67 -86.68 457.34 -86 457 C-83.96855359 457.93446535 -81.96466413 458.93224776 -80 460 C-80 460.99 -80 461.98 -80 463 C-76.19572508 465.2013866 -76.19572508 465.2013866 -72 466 C-72 466.66 -72 467.32 -72 468 C-71.44054687 468.14695312 -70.88109375 468.29390625 -70.3046875 468.4453125 C-63.88774353 470.24040615 -57.92305827 472.6928136 -51.828125 475.37109375 C-45.32764886 478.18557435 -38.6494078 480.56476234 -32 483 C-32.66 483.66 -33.32 484.32 -34 485 C-32.70630493 484.71600342 -32.70630493 484.71600342 -31.38647461 484.42626953 C-27.77069542 483.97113649 -25.34461076 484.33574424 -21.81640625 485.1796875 C-20.64956299 485.44894043 -19.48271973 485.71819336 -18.28051758 485.99560547 C-17.05357178 486.28580566 -15.82662598 486.57600586 -14.5625 486.875 C-4.6062634 489.10380984 4.77496383 490.99320746 15 491 C16.00353516 491.00692871 17.00707031 491.01385742 18.04101562 491.02099609 C25.36119517 491.0681352 32.67992473 491.05647536 40 491 C40 491.66 40 492.32 40 493 C39.01 493.33 38.02 493.66 37 494 C37.804375 494.12375 38.60875 494.2475 39.4375 494.375 C40.283125 494.58125 41.12875 494.7875 42 495 C42.33 495.66 42.66 496.32 43 497 C43 496.01 43 495.02 43 494 C44.99954746 493.95745644 47.00041636 493.95919217 49 494 C49.33 494.33 49.66 494.66 50 495 C50.804375 494.5359375 50.804375 494.5359375 51.625 494.0625 C54.41918639 492.81246924 56.97493849 492.43215164 60 492 C60.75796875 491.83757812 61.5159375 491.67515625 62.296875 491.5078125 C65.30370247 490.94294607 68.26266046 490.67210304 71.3125 490.4375 C72.38113281 490.35371094 73.44976562 490.26992188 74.55078125 490.18359375 C75.35902344 490.12300781 76.16726563 490.06242187 77 490 C76.67 490.66 76.34 491.32 76 492 C75.34 492 74.68 492 74 492 C74 492.66 74 493.32 74 494 C77.3 493.34 80.6 492.68 84 492 C83.34 491.67 82.68 491.34 82 491 C82.6328125 489.10546875 82.6328125 489.10546875 84 487 C86.6796875 485.98828125 86.6796875 485.98828125 89.875 485.3125 C90.92429687 485.08175781 91.97359375 484.85101563 93.0546875 484.61328125 C94.02664063 484.41089844 94.99859375 484.20851563 96 484 C97.33511631 483.67388143 98.66935562 483.3439105 100 483 C100 483.66 100 484.32 100 485 C98.5459375 485.4021875 98.5459375 485.4021875 97.0625 485.8125 C96.051875 486.204375 95.04125 486.59625 94 487 C93.67 487.99 93.34 488.98 93 490 C93.66 489.34 94.32 488.68 95 488 C96.8118926 487.39044354 98.65007207 486.85695491 100.5 486.375 C101.4796875 486.11460937 102.459375 485.85421875 103.46875 485.5859375 C106 485 106 485 108 485 C108 484.34 108 483.68 108 483 C110.07553648 482.4465236 111.84365964 482 114 482 C118.51395516 480.62236434 122.33148506 479.01342299 126 476 C128.71299287 474.4379738 129.79603997 474 133 474 C135.02792359 472.91254793 135.02792359 472.91254793 137.0625 471.5 C140.79166667 469 140.79166667 469 143 469 C143 468.34 143 467.68 143 467 C143.94875 466.71125 144.8975 466.4225 145.875 466.125 C149.05211578 465.23174891 149.05211578 465.23174891 151 463 C154 461 154 461 156 461 C156.66 460.34 157.32 459.68 158 459 C158.515625 458.525625 159.03125 458.05125 159.5625 457.5625 C161.24493972 455.94783153 161.24493972 455.94783153 162 453 C163.32 453 164.64 453 166 453 C166 451.02 166 449.04 166 447 C165.690625 447.7425 165.38125 448.485 165.0625 449.25 C162.19567965 453.07242714 158.55174744 454.66988785 154 456 C153.34 455.67 152.68 455.34 152 455 C153.10067996 454.18278283 154.20569731 453.37140549 155.3125 452.5625 C156.23482422 451.88380859 156.23482422 451.88380859 157.17578125 451.19140625 C159 450 159 450 162 449 C163.37334617 446.71108972 164.15250816 444.54247553 165 442 C165.5671875 441.88527344 166.134375 441.77054687 166.71875 441.65234375 C170.17075698 440.66521162 172.11917635 438.11523599 174.5 435.5625 C180.20121688 429.49621882 180.20121688 429.49621882 184 428 C184 427.34 184 426.68 184 426 C184.66 426 185.32 426 186 426 C186.66 424.35 187.32 422.7 188 421 C187.01 421 186.02 421 185 421 C185 420.34 185 419.68 185 419 C185.66 419 186.32 419 187 419 C187.268125 418.360625 187.53625 417.72125 187.8125 417.0625 C189 415 189 415 192 414 C192.33 413.34 192.66 412.68 193 412 C193.99 411.67 194.98 411.34 196 411 C196.66 411.33 197.32 411.66 198 412 C198 412.99 198 413.98 198 415 C198.309375 414.360625 198.61875 413.72125 198.9375 413.0625 C200 411 200 411 201 410 C199.68 410.33 198.36 410.66 197 411 C196.67 410.01 196.34 409.02 196 408 C197.36328125 405.4765625 197.36328125 405.4765625 199.3125 402.625 C201.68790672 399.12693655 203.4418362 395.91352769 205 392 C206.23850356 389.93856141 207.51254853 387.89825142 208.8125 385.875 C215.4938023 375.21887885 219.70664873 363.75876619 224 352 C224.66 352.66 225.32 353.32 226 354 C226.66 352.35 227.32 350.7 228 349 C228.66 349 229.32 349 230 349 C229.67 348.01 229.34 347.02 229 346 C228.34 346.33 227.68 346.66 227 347 C226.67 345.68 226.34 344.36 226 343 C226.99 343 227.98 343 229 343 C229 342.01 229 341.02 229 340 C229 339.34 229 338.68 229 338 C229.66 338 230.32 338 231 338 C230.484375 337.05125 229.96875 336.1025 229.4375 335.125 C227.41628773 330.46286416 227.81515179 325.87302235 229 321 C229.66 320.34 230.32 319.68 231 319 C231.12375 319.886875 231.2475 320.77375 231.375 321.6875 C232.08435748 325.44709463 233.29679442 328.59358885 235 332 C237.52733235 332.65555119 237.52733235 332.65555119 240 333 C240 332.01 240 331.02 240 330 C240.99 330 241.98 330 243 330 C242.67 328.68 242.34 327.36 242 326 C242.66 326 243.32 326 244 326 C243.67 323.36 243.34 320.72 243 318 C243 320.31 243 322.62 243 325 C242.34 325 241.68 325 241 325 C240.93941406 324.39671875 240.87882812 323.7934375 240.81640625 323.171875 C240.73261719 322.37265625 240.64882813 321.5734375 240.5625 320.75 C240.48128906 319.96109375 240.40007812 319.1721875 240.31640625 318.359375 C240.02365007 316.17635361 239.57935581 314.1226818 239 312 C240.65 313.32 242.3 314.64 244 316 C243.67 314.68 243.34 313.36 243 312 C242.34 312 241.68 312 241 312 C238.76428932 307.52857864 238 304.06574595 238 299 C238.61344757 297.31301918 239.27095914 295.64034193 240 294 C241.32 295.65 242.64 297.3 244 299 C243.67 295.37 243.34 291.74 243 288 C243.66 288 244.32 288 245 288 C245 288.66 245 289.32 245 290 C246.88316159 291.10836423 246.88316159 291.10836423 249 292 C249.66 291.67 250.32 291.34 251 291 C253.92209857 291.4565779 254.85279101 291.85279101 257 294 C258.32 294 259.64 294 261 294 C262.86060537 303.73239733 263.08930081 312.75758513 262.25 322.625 C262.12069092 324.1709082 262.12069092 324.1709082 261.98876953 325.74804688 C261.50610625 330.78094608 260.82484694 335.2496048 259 340 C258.64070397 341.45215481 258.30488664 342.91045524 258 344.375 C257.36917634 347.33043368 256.69280342 350.26139859 255.9375 353.1875 C254.96863267 356.88544873 254.96863267 356.88544873 254.5 360.25 C253.88879446 363.61163046 252.66990301 365.97751646 250.8125 368.8125 C249.62267848 372.01586563 250.45631954 374.6775083 251 378 C250.67 378.99 250.34 379.98 250 381 C250.66 381 251.32 381 252 381 C252.33 380.34 252.66 379.68 253 379 C254.12169695 382.36509086 253.90506078 382.98843462 252.75 386.1875 C252.47027344 386.97769531 252.19054687 387.76789063 251.90234375 388.58203125 C251.05493348 390.85279731 250.18591827 393.11414219 249.3125 395.375 C247.82977946 398.82758415 247.82977946 398.82758415 248 402 C247.34 402 246.68 402 246 402 C246.33 402.66 246.66 403.32 247 404 C247.99 403.67 248.98 403.34 250 403 C250.71949183 401.35544725 251.36971413 399.68076231 252 398 C254.02468813 394.14487426 256.21621674 390.37945854 258.3671875 386.59375 C260.50436689 382.79994043 262.53849024 379.11880024 264 375 C264.66 375 265.32 375 266 375 C266.33 373.68 266.66 372.36 267 371 C267.66 371 268.32 371 269 371 C269 370.34 269 369.68 269 369 C269.66 369.33 270.32 369.66 271 370 C270.67 373.3 270.34 376.6 270 380 C270.99 379.67 271.98 379.34 273 379 C273 379.66 273 380.32 273 381 C272.01 381 271.02 381 270 381 C270.66 382.98 271.32 384.96 272 387 C272.66 386.67 273.32 386.34 274 386 C274.9465679 394.6559643 275.65817341 401.90097423 272 410 C270.09967996 414.95935469 270.09967996 414.95935469 271 420 C270.67 420.33 270.34 420.66 270 421 C270.30300475 423.33746522 270.63858045 425.67085177 271 428 C271 428.99 271 429.98 271 431 C271.33 431.99 271.66 432.98 272 434 C271.0625 436.6875 271.0625 436.6875 270 439 C268 439 266 439 264 439 C263.80664062 439.69867188 263.61328125 440.39734375 263.4140625 441.1171875 C263.15367187 442.02726562 262.89328125 442.93734375 262.625 443.875 C262.36976563 444.77992188 262.11453125 445.68484375 261.8515625 446.6171875 C261 449 261 449 259 451 C259.165 451.94875 259.33 452.8975 259.5 453.875 C260.06034021 457.3771263 259.74363178 458.06335701 258 461 C257.731875 461.886875 257.46375 462.77375 257.1875 463.6875 C255.61172206 468.0830911 253.34420167 471.97369942 251 476 C249.484375 474.7265625 249.484375 474.7265625 248 473 C248.44444444 466.55555556 248.44444444 466.55555556 250 465 C250 464.34 250 463.68 250 463 C249.34 462.67 248.68 462.34 248 462 C248.33 461.67 248.66 461.34 249 461 C249 459.35 249 457.7 249 456 C246.36 457.98 243.72 459.96 241 462 C242.32 461.34 243.64 460.68 245 460 C244.34 461.65 243.68 463.3 243 465 C241.68 465 240.36 465 239 465 C239.99 465.66 240.98 466.32 242 467 C240 469 240 469 238.07421875 469.421875 C234.27079975 470.48196165 232.14324706 473.82880059 230 477 C229.62331656 478.65740715 229.27942455 480.32345271 229 482 C227.125 483.625 227.125 483.625 225 485 C223.98198643 485.98165594 222.9753197 486.97591432 222 488 C222.66 488.33 223.32 488.66 224 489 C223.01 489 222.02 489 221 489 C219.45833358 490.37485532 219.45833358 490.37485532 218 492 C217.01 492.66 216.02 493.32 215 494 C214.27034634 496.56282742 214.27034634 496.56282742 214 499 C213.34 499 212.68 499 212 499 C211.67 499.99 211.34 500.98 211 502 C207.9375 503.6875 207.9375 503.6875 205 505 C204.67 504.67 204.34 504.34 204 504 C203.34 505.65 202.68 507.3 202 509 C201.34 508.67 200.68 508.34 200 508 C199.67 508.66 199.34 509.32 199 510 C198.34 510 197.68 510 197 510 C196.9175 510.5775 196.835 511.155 196.75 511.75 C195.57836698 515.26489907 193.31208637 517.25648439 190.125 519.0625 C189.42375 519.371875 188.7225 519.68125 188 520 C186.39125 520.804375 186.39125 520.804375 184.75 521.625 C183.8425 522.07875 182.935 522.5325 182 523 C182 523.99 182 524.98 182 526 C180.35 526 178.7 526 177 526 C176.67 526.99 176.34 527.98 176 529 C173.4375 530.1875 173.4375 530.1875 171 531 C171 530.01 171 529.02 171 528 C168.04409629 527.6707477 168.04409629 527.6707477 166.5 529.3125 C165.5091414 530.42721593 164.52964861 531.55215163 163.5625 532.6875 C162 534 162 534 158 534 C158.33 534.99 158.66 535.98 159 537 C159.66 537.33 160.32 537.66 161 538 C157.41492737 540.31975288 154.03474185 541.65508605 150 543 C148.6373765 543.67058243 147.28349739 544.35914046 145.9375 545.0625 C143.56411618 546.29665959 141.90998222 547.01636687 139.25 547.5 C135.58184889 548.31514469 133.8177842 551.0118441 131.5 553.8125 C131.005 554.204375 130.51 554.59625 130 555 C129.4225 554.835 128.845 554.67 128.25 554.5 C125.28493843 553.84109743 123.61770391 554.90217581 120.94921875 556.1640625 C117.73295848 557.54338053 114.40626272 558.22313306 111 559 C112.66666667 557.33333333 114.33333333 555.66666667 116 554 C112.37 554 108.74 554 105 554 C105 554.66 105 555.32 105 556 C103.35 556 101.7 556 100 556 C100 556.66 100 557.32 100 558 C98.35 558.33 96.7 558.66 95 559 C94.67 558.34 94.34 557.68 94 557 C93.34 557 92.68 557 92 557 C92.33 557.99 92.66 558.98 93 560 C91.0085944 560.38133299 89.00720923 560.71325582 87 561 C86.67 560.67 86.34 560.34 86 560 C83.01934146 559.73700072 80.90690959 560.02975942 78.04296875 560.9453125 C72.94380123 562.44872463 67.71653156 562.67557289 62.4375 563.0625 C56.56891362 563.51335648 50.80358217 563.99882103 45 565 C42.33032478 565.24220844 39.67372913 565.45412257 37 565.625 C36.31421875 565.6765625 35.6284375 565.728125 34.921875 565.78125 C30.75961657 566.0513202 27.09190292 565.70180893 23 565 C22.01 565.33 21.02 565.66 20 566 C17.94921875 565.87890625 17.94921875 565.87890625 15.6875 565.5625 C12.91290668 565.20157729 10.43864156 565.01039553 7.625 565.0625 C5 565 5 565 2 563 C0.34450469 562.61500109 -1.3222433 562.27206865 -3 562 C-3 561.01 -3 560.02 -3 559 C-4.485 560.485 -4.485 560.485 -6 562 C-5.34 562.33 -4.68 562.66 -4 563 C-7.60509039 562.48498709 -11.20980067 561.9690458 -14.8125 561.4375 C-18.58926492 560.9191205 -21.28768425 561.21845984 -25 562 C-24.67 561.01 -24.34 560.02 -24 559 C-24.66 559 -25.32 559 -26 559 C-26 559.99 -26 560.98 -26 562 C-29.37462715 561.45276317 -31.08235 560.9451 -34 559 C-33.01 559 -32.02 559 -31 559 C-31 558.01 -31 557.02 -31 556 C-33.31 556.99 -35.62 557.98 -38 559 C-38.99 558.01 -39.98 557.02 -41 556 C-40.67 555.34 -40.34 554.68 -40 554 C-40.99 554 -41.98 554 -43 554 C-43 554.99 -43 555.98 -43 557 C-45.31 556.34 -47.62 555.68 -50 555 C-50 555.66 -50 556.32 -50 557 C-50.99 556.67 -51.98 556.34 -53 556 C-52.67 555.34 -52.34 554.68 -52 554 C-51.34 554 -50.68 554 -50 554 C-50 553.01 -50 552.02 -50 551 C-51.65 551 -53.3 551 -55 551 C-55 551.66 -55 552.32 -55 553 C-56.65 553 -58.3 553 -60 553 C-60 552.34 -60 551.68 -60 551 C-60.99 551.33 -61.98 551.66 -63 552 C-63 551.34 -63 550.68 -63 550 C-64.134375 549.87625 -65.26875 549.7525 -66.4375 549.625 C-67.613125 549.41875 -68.78875 549.2125 -70 549 C-70.33 548.34 -70.66 547.68 -71 547 C-69.68 547.33 -68.36 547.66 -67 548 C-67.33 547.34 -67.66 546.68 -68 546 C-69.32 546 -70.64 546 -72 546 C-72 545.34 -72 544.68 -72 544 C-76.29 543.67 -80.58 543.34 -85 543 C-83.68 542.01 -82.36 541.02 -81 540 C-81.99 539.67 -82.98 539.34 -84 539 C-84 539.66 -84 540.32 -84 541 C-85.98 540.67 -87.96 540.34 -90 540 C-90 539.34 -90 538.68 -90 538 C-90.928125 537.690625 -91.85625 537.38125 -92.8125 537.0625 C-94.875 536.375 -96.9375 535.6875 -99 535 C-99 534.34 -99 533.68 -99 533 C-99.598125 532.87625 -100.19625 532.7525 -100.8125 532.625 C-103 532 -103 532 -106 530 C-106 529.34 -106 528.68 -106 528 C-107.2684375 528.0309375 -107.2684375 528.0309375 -108.5625 528.0625 C-112.16248363 527.99704575 -115.47482078 527.74571099 -119 527 C-119.99 525.515 -119.99 525.515 -121 524 C-119.35 524.33 -117.7 524.66 -116 525 C-116 524.34 -116 523.68 -116 523 C-117.32 522.67 -118.64 522.34 -120 522 C-120 521.34 -120 520.68 -120 520 C-121.98 519.67 -123.96 519.34 -126 519 C-126 519.66 -126 520.32 -126 521 C-127.9375 520.6875 -127.9375 520.6875 -130 520 C-130.33 519.01 -130.66 518.02 -131 517 C-133.50447516 515.78130071 -133.50447516 515.78130071 -136 515 C-136.33 515.66 -136.66 516.32 -137 517 C-141.27609447 514.43434332 -143.63459181 512.37600515 -146 508 C-147.55179886 507.22410057 -149.1205037 506.48197003 -150.6953125 505.75390625 C-154.3979611 503.78878897 -157.57462721 501.50238248 -160.875 498.9375 C-161.76445312 498.26750977 -161.76445312 498.26750977 -162.671875 497.58398438 C-164.15548348 496.44051194 -165.58331629 495.22541039 -167 494 C-167 493.34 -167 492.68 -167 492 C-168.55946198 490.65470011 -170.17563455 489.37496998 -171.8125 488.125 C-178.23830795 482.97611542 -183.63089245 477.22407328 -189 471 C-189.68787598 470.20311768 -189.68787598 470.20311768 -190.38964844 469.39013672 C-194.91225191 464.11908546 -199.22202269 458.83478045 -203 453 C-203.99 453.33 -204.98 453.66 -206 454 C-226.38777026 424.10061252 -241.54929659 390.21063519 -250.46191406 355.11621094 C-250.81582562 353.72433011 -251.17696019 352.33426247 -251.54589844 350.94628906 C-254.86485782 338.45667881 -256.5908107 325.83352384 -258 313 C-258.09861328 312.16702393 -258.19722656 311.33404785 -258.29882812 310.47583008 C-259.22596619 301.81185632 -259.15574459 293.13877706 -259.125 284.4375 C-259.12311676 283.6356427 -259.12123352 282.8337854 -259.11929321 282.00762939 C-258.99404864 236.64642573 -249.4061966 189.49446538 -226 150 C-225.25631424 148.71495726 -224.51284072 147.42979168 -223.76953125 146.14453125 C-222.97265172 144.78309385 -222.17447867 143.42241273 -221.375 142.0625 C-221.0025415 141.42280273 -220.63008301 140.78310547 -220.24633789 140.12402344 C-218.16052892 136.63051372 -216.02365486 133.72949839 -213 131 C-212.67 131.66 -212.34 132.32 -212 133 C-211.42894531 132.175 -210.85789063 131.35 -210.26953125 130.5 C-200.2595711 116.18686897 -189.36037198 102.36037198 -177 90 C-176.236875 89.05125 -175.47375 88.1025 -174.6875 87.125 C-172.17128485 84.05568493 -169.32083374 81.55333525 -166.30078125 78.98828125 C-163.65706471 76.70364335 -161.1174145 74.32089577 -158.5625 71.9375 C-154.67667219 68.39328343 -150.7993327 65.34940149 -146.359375 62.546875 C-143.5715248 60.71907917 -140.95730516 58.71658332 -138.3125 56.6875 C-123.2903422 45.33996382 -106.88410858 36.16423989 -89.97167969 27.96142578 C-88.08045966 27.03923355 -86.20021219 26.09734438 -84.3203125 25.15234375 C-74.53773541 20.31635375 -64.46302004 17.04130242 -54 14 C-53.24283691 13.77570312 -52.48567383 13.55140625 -51.70556641 13.3203125 C-43.10260793 10.77959078 -34.45958535 8.56650904 -25.6875 6.6875 C-24.89279297 6.51589355 -24.09808594 6.34428711 -23.27929688 6.16748047 C-19.45886442 5.37854965 -15.92521691 4.78846136 -12 5 C-12 4.34 -12 3.68 -12 3 C-11.30132812 3.03480469 -10.60265625 3.06960938 -9.8828125 3.10546875 C-8.97273437 3.13253906 -8.06265625 3.15960938 -7.125 3.1875 C-6.22007812 3.22230469 -5.31515625 3.25710938 -4.3828125 3.29296875 C-3.20332031 3.14794922 -3.20332031 3.14794922 -2 3 C-1.34 2.01 -0.68 1.02 0 0 Z M40 1 C44 2 44 2 44 2 Z M112 96 C113 98 113 98 113 98 Z M-218 141 C-217.67 141.66 -217.34 142.32 -217 143 C-216.67 142.34 -216.34 141.68 -216 141 C-216.66 141 -217.32 141 -218 141 Z M210 156 C209.67 156.66 209.34 157.32 209 158 C209.99 157.67 210.98 157.34 212 157 C211.34 156.67 210.68 156.34 210 156 Z M208 159 C208.99 159.99 209.98 160.98 211 162 C210.67 161.01 210.34 160.02 210 159 C209.34 159 208.68 159 208 159 Z M218 175 C219 177 219 177 219 177 Z M295 196 C296 198 296 198 296 198 Z M301 216 C301.14049518 217.47968324 301.28754826 218.95874516 301.4375 220.4375 C301.51871094 221.26121094 301.59992187 222.08492187 301.68359375 222.93359375 C301.78930815 224.98662025 301.78930815 224.98662025 303 226 C303 227.96225514 302.99747345 229.92457504 302.9765625 231.88671875 C303.03770611 237.39983396 304.62861672 242.69731799 306 248 C306.33 248 306.66 248 307 248 C307 246.35 307 244.7 307 243 C307.66 243 308.32 243 309 243 C308.67 245.31 308.34 247.62 308 250 C308.66 250 309.32 250 310 250 C310.42720625 242.39731094 308.93965399 236.27742345 306.625 229.0625 C306.30789063 228.02287109 305.99078125 226.98324219 305.6640625 225.91210938 C304.16940474 220.47705184 304.16940474 220.47705184 301 216 Z M289 238 C290 241 290 241 290 241 Z M291 241 C290.67 241.66 290.34 242.32 290 243 C290.66 243 291.32 243 292 243 C291.67 242.34 291.34 241.68 291 241 Z M303 244 C304 246 304 246 304 246 Z M241 302 C242 304 242 304 242 304 Z M241 306 C241.66 307.32 242.32 308.64 243 310 C243.33 309.01 243.66 308.02 244 307 C243.01 306.67 242.02 306.34 241 306 Z M244 310 C245 313 245 313 245 313 Z M252 324 C253 326 253 326 253 326 Z M240 333 C239.67 334.32 239.34 335.64 239 337 C239.99 337.33 240.98 337.66 242 338 C242 336.35 242 334.7 242 333 C241.34 333 240.68 333 240 333 Z M246 337 C247 339 247 339 247 339 Z M251 338 C252 341 252 341 252 341 Z M-240 340 C-239 342 -239 342 -239 342 Z M244 340 C245 344 245 344 245 344 Z M253 340 C254 343 254 343 254 343 Z M250 341 C251 343 251 343 251 343 Z M246 343 C244.14223235 346.13498292 243.79859524 348.37471432 244 352 C244.66 351.34 245.32 350.68 246 350 C246.66 351.32 247.32 352.64 248 354 C248.66 354 249.32 354 250 354 C249.91291331 352.54054712 249.80473093 351.08234132 249.6875 349.625 C249.60048828 348.40683594 249.60048828 348.40683594 249.51171875 347.1640625 C249.17009472 344.62078662 249.17009472 344.62078662 246 343 Z M-236 347 C-235 349 -235 349 -235 349 Z M-238 349 C-238 349.99 -238 350.98 -238 352 C-237.34 351.67 -236.68 351.34 -236 351 C-236.66 350.34 -237.32 349.68 -238 349 Z M241 350 C240.23283149 352.85078091 240.23283149 352.85078091 240 356 C241.31318262 357.89958081 241.31318262 357.89958081 243 359 C243 358.34 243 357.68 243 357 C243.99 357.33 244.98 357.66 246 358 C246 356.02 246 354.04 246 352 C244.68 352.33 243.36 352.66 242 353 C241.67 352.01 241.34 351.02 241 350 Z M253 350 C254 352 254 352 254 352 Z M251 351 C252 355 252 355 252 355 Z M247 358 C247 359.98 247 361.96 247 364 C247.66 362.68 248.32 361.36 249 360 C248.34 359.34 247.68 358.68 247 358 Z M250 361 C248.64381501 362.12534105 248.64381501 362.12534105 248.9375 365.0625 C248.958125 366.031875 248.97875 367.00125 249 368 C250.12516085 366.16715557 250.12516085 366.16715557 251 364 C250.67 363.01 250.34 362.02 250 361 Z M224 362 C224 363.32 224 364.64 224 366 C224.66 366 225.32 366 226 366 C225.34 364.68 224.68 363.36 224 362 Z M-237 363 C-237 363.66 -237 364.32 -237 365 C-236.34 364.67 -235.68 364.34 -235 364 C-235.66 363.67 -236.32 363.34 -237 363 Z M-165 363 C-164 365 -164 365 -164 365 Z M-162 371 C-161 373 -161 373 -161 373 Z M249 381 C248.67 383.64 248.34 386.28 248 389 C248.66 388.67 249.32 388.34 250 388 C250.83492354 385.57540213 250.83492354 385.57540213 251 383 C250.34 382.34 249.68 381.68 249 381 Z M234 387 C235 389 235 389 235 389 Z M247 389 C248 391 248 391 248 391 Z M234 390 C235 392 235 392 235 392 Z M246 393 C246 393.66 246 394.32 246 395 C246.66 394.67 247.32 394.34 248 394 C247.34 393.67 246.68 393.34 246 393 Z M254 399 C255 401 255 401 255 401 Z M244 401 C245 403 245 403 245 403 Z M270 401 C271 403 271 403 271 403 Z M252 402 C252 405 252 405 252 405 Z M231 403 C232 405 232 405 232 405 Z M247 409 C246.67 409.99 246.34 410.98 246 412 C246.66 412 247.32 412 248 412 C247.67 411.01 247.34 410.02 247 409 Z M243 409 C242.34 409.66 241.68 410.32 241 411 C241.99 411.33 242.98 411.66 244 412 C243.67 411.01 243.34 410.02 243 409 Z M240 412 C238.5393715 414.64738916 238 415.89448334 238 419 C237.01 419.33 236.02 419.66 235 420 C235.33 421.32 235.66 422.64 236 424 C239.43793339 423.81870185 239.43793339 423.81870185 243 423 C244.51294288 421.06402968 244.51294288 421.06402968 245 419 C244.01 418.67 243.02 418.34 242 418 C241.67 417.34 241.34 416.68 241 416 C241.66 416 242.32 416 243 416 C242.67 414.68 242.34 413.36 242 412 C241.34 412 240.68 412 240 412 Z M200 413 C200.66 413.66 201.32 414.32 202 415 C202.33 414.34 202.66 413.68 203 413 C202.01 413 201.02 413 200 413 Z M193 414 C193 417 193 417 193 417 Z M244 415 C243.67 415.66 243.34 416.32 243 417 C243.66 417 244.32 417 245 417 C244.67 416.34 244.34 415.68 244 415 Z M257 415 C256.67 415.66 256.34 416.32 256 417 C256.66 417 257.32 417 258 417 C257.67 416.34 257.34 415.68 257 415 Z M190 416 C189.67 417.32 189.34 418.64 189 420 C189.99 419.01 190.98 418.02 192 417 C191.34 416.67 190.68 416.34 190 416 Z M191 420 C190.67 420.99 190.34 421.98 190 423 C190.99 423.33 191.98 423.66 193 424 C193.33 423.01 193.66 422.02 194 421 C193.01 420.67 192.02 420.34 191 420 Z M255 422 C254.67 422.99 254.34 423.98 254 425 C254.66 425 255.32 425 256 425 C255.67 424.01 255.34 423.02 255 422 Z M196 423 C196.33 423.66 196.66 424.32 197 425 C197.33 424.34 197.66 423.68 198 423 C197.34 423 196.68 423 196 423 Z M234 424 C235 426 235 426 235 426 Z M240 425 C241 427 241 427 241 427 Z M237 428 C236.67 429.65 236.34 431.3 236 433 C236.99 432.01 237.98 431.02 239 430 C238.34 429.34 237.68 428.68 237 428 Z M248 428 C249 431 249 431 249 431 Z M263 428 C264 430 264 430 264 430 Z M231 430 C232 432 232 432 232 432 Z M179 434 C179 434.66 179 435.32 179 436 C178.38125 436.103125 177.7625 436.20625 177.125 436.3125 C174.63473516 436.87525373 174.63473516 436.87525373 173 440 C173.598125 439.835 174.19625 439.67 174.8125 439.5 C177 439 177 439 180 439 C181.72943475 437.68732044 181.72943475 437.68732044 183 436 C183 435.34 183 434.68 183 434 C183.66 434 184.32 434 185 434 C185 433.01 185 432.02 185 431 C182.20091867 431 181.07277627 432.2035939 179 434 Z M183 436 C183.33 436.66 183.66 437.32 184 438 C184.33 437.34 184.66 436.68 185 436 C184.34 436 183.68 436 183 436 Z M-212 440 C-210.92598892 442.91517292 -210.22189824 444.77810176 -208 447 C-207.67 446.34 -207.34 445.68 -207 445 C-208.2463436 442.33942344 -208.2463436 442.33942344 -210 440 C-210.66 440 -211.32 440 -212 440 Z M177 441 C177.66 441.66 178.32 442.32 179 443 C179 442.34 179 441.68 179 441 C178.34 441 177.68 441 177 441 Z M172 442 C172.33 442.99 172.66 443.98 173 445 C173 444.01 173 443.02 173 442 C172.67 442 172.34 442 172 442 Z M243 444 C243 444.66 243 445.32 243 446 C242.01 446 241.02 446 240 446 C240.33 446.66 240.66 447.32 241 448 C242.32 447.34 243.64 446.68 245 446 C244.34 445.34 243.68 444.68 243 444 Z M255 445 C256.485 445.99 256.485 445.99 258 447 C258 446.34 258 445.68 258 445 C257.01 445 256.02 445 255 445 Z M167 449 C168 451 168 451 168 451 Z M253 452 C254 454 254 454 254 454 Z M258 453 C259 456 259 456 259 456 Z M161 459 C160.01 460.485 160.01 460.485 159 462 C160.32 461.34 161.64 460.68 163 460 C162.34 459.67 161.68 459.34 161 459 Z M252 463 C253 465 253 465 253 465 Z M-179 472 C-178 474 -178 474 -178 474 Z M-40 483 C-39.34 483.66 -38.68 484.32 -38 485 C-38 484.34 -38 483.68 -38 483 C-38.66 483 -39.32 483 -40 483 Z M-26 487 C-24.16715557 488.12516085 -24.16715557 488.12516085 -22 489 C-21.01 488.67 -20.02 488.34 -19 488 C-21.31 487.67 -23.62 487.34 -26 487 Z M87 488 C86.34 488.66 85.68 489.32 85 490 C86.06645115 491.29633621 86.06645115 491.29633621 88.5625 491.0625 C89.366875 491.041875 90.17125 491.02125 91 491 C90.02149805 489.97895449 89.02019573 488.9793879 88 488 C87.67 488 87.34 488 87 488 Z M-14 490 C-14 490.33 -14 490.66 -14 491 C-12.02 491 -10.04 491 -8 491 C-8 490.67 -8 490.34 -8 490 C-9.98 490 -11.96 490 -14 490 Z M-160 491 C-159.67 492.32 -159.34 493.64 -159 495 C-157.02 495.495 -157.02 495.495 -155 496 C-155 495.34 -155 494.68 -155 494 C-157.46326712 492.3553326 -157.46326712 492.3553326 -160 491 Z M-8 491 C-4 492 -4 492 -4 492 Z M8 493 C9.98 493.99 9.98 493.99 12 495 C12 494.34 12 493.68 12 493 C10.68 493 9.36 493 8 493 Z M63 495 C65.64 494.67 68.28 494.34 71 494 C67.59745511 492.7848054 66.06748874 493.13759612 63 495 Z M-2 494 C-1.67 494.66 -1.34 495.32 -1 496 C-0.34 495.67 0.32 495.34 1 495 C0.01 494.67 -0.98 494.34 -2 494 Z M60 494 C58.02 494.99 58.02 494.99 56 496 C57.65 496 59.3 496 61 496 C60.67 495.34 60.34 494.68 60 494 Z M-155 496 C-155 496.66 -155 497.32 -155 498 C-154.34 498 -153.68 498 -153 498 C-153 498.66 -153 499.32 -153 500 C-150.79311693 502.28232418 -150.79311693 502.28232418 -148 504 C-145.73575649 503.87436418 -145.73575649 503.87436418 -144 503 C-144.99 502.67 -145.98 502.34 -147 502 C-148.66666667 500.33333333 -150.33333333 498.66666667 -152 497 C-152.99 496.67 -153.98 496.34 -155 496 Z M19 496 C23 497 23 497 23 497 Z M28 496 C32 497 32 497 32 497 Z M210 496 C210 497.32 210 498.64 210 500 C210.99 499.01 211.98 498.02 213 497 C212.01 496.67 211.02 496.34 210 496 Z M-143 506 C-142.01 506.99 -141.02 507.98 -140 509 C-140 508.01 -140 507.02 -140 506 C-140.99 506 -141.98 506 -143 506 Z M42 506 C42 506.66 42 507.32 42 508 C42.66 507.67 43.32 507.34 44 507 C43.34 506.67 42.68 506.34 42 506 Z M195 508 C194.67 509.32 194.34 510.64 194 512 C194.66 512 195.32 512 196 512 C195.67 510.68 195.34 509.36 195 508 Z M-138 509 C-138 509.66 -138 510.32 -138 511 C-137.34 510.67 -136.68 510.34 -136 510 C-136.66 509.67 -137.32 509.34 -138 509 Z M186 515 C185.67 515.66 185.34 516.32 185 517 C185.66 517 186.32 517 187 517 C186.67 516.34 186.34 515.68 186 515 Z M-128 516 C-127 518 -127 518 -127 518 Z M-111 524 C-110.67 524.99 -110.34 525.98 -110 527 C-110 526.01 -110 525.02 -110 524 C-110.33 524 -110.66 524 -111 524 Z M173 524 C174 527 174 527 174 527 Z M175 524 C176 526 176 526 176 526 Z M145.9375 539.375 C145.22464844 539.63023437 144.51179688 539.88546875 143.77734375 540.1484375 C141.81080285 540.8672375 141.81080285 540.8672375 141 543 C138.9375 543.625 138.9375 543.625 137 544 C138.09069279 545.30408759 138.09069279 545.30408759 140.75 545.25 C144.37769489 544.97094655 146.02642033 544.00917545 149 542 C149.99 541.67 150.98 541.34 152 541 C152 540.01 152 539.02 152 538 C149.68037291 538 148.11252566 538.57762217 145.9375 539.375 Z M-73 540 C-72.01 541.485 -72.01 541.485 -71 543 C-70.34 542.34 -69.68 541.68 -69 541 C-70.32 540.67 -71.64 540.34 -73 540 Z M-71 543 C-70 545 -70 545 -70 545 Z M-58 545 C-57.67 545.66 -57.34 546.32 -57 547 C-56.67 546.34 -56.34 545.68 -56 545 C-56.66 545 -57.32 545 -58 545 Z M-65 547 C-64.34 547.66 -63.68 548.32 -63 549 C-62.34 548.34 -61.68 547.68 -61 547 C-62.32 547 -63.64 547 -65 547 Z M-58 548 C-58 548.99 -58 549.98 -58 551 C-57.01 550.67 -56.02 550.34 -55 550 C-55.66 550 -56.32 550 -57 550 C-57.33 549.34 -57.66 548.68 -58 548 Z M124 549 C124.33 549.66 124.66 550.32 125 551 C125.66 550.34 126.32 549.68 127 549 C126.01 549 125.02 549 124 549 Z M118.3125 550.375 C117.549375 550.58125 116.78625 550.7875 116 551 C116.33 551.66 116.66 552.32 117 553 C120.465 552.505 120.465 552.505 124 552 C121.21885944 549.66608797 121.21885944 549.66608797 118.3125 550.375 Z M-38 553 C-37.67 553.66 -37.34 554.32 -37 555 C-36.01 554.67 -35.02 554.34 -34 554 C-35.32 553.67 -36.64 553.34 -38 553 Z M-27 556 C-26.67 556.66 -26.34 557.32 -26 558 C-25.67 557.34 -25.34 556.68 -25 556 C-25.66 556 -26.32 556 -27 556 Z M-18 556 C-17 558 -17 558 -17 558 Z M-2 558 C-1.34 558.66 -0.68 559.32 0 560 C0 559.34 0 558.68 0 558 C-0.66 558 -1.32 558 -2 558 Z M6 558 C10 559 10 559 10 559 Z M60 560 C64 561 64 561 64 561 Z M16 562 C20 563 20 563 20 563 Z " fill="#FFB700" transform="translate(259,0)"/>
<path d="M0 0 C2.89932357 2.39509338 3.50168276 4.31245243 4 8 C4.66 8 5.32 8 6 8 C6.061875 8.78375 6.12375 9.5675 6.1875 10.375 C7.3032335 15.35288793 9.60306227 19.52453694 12 24 C8.54192946 22.59768265 7.22214512 21.18284476 5.4375 17.9375 C3.62073969 14.49367205 3.62073969 14.49367205 0 13 C-2.02532117 9.02436956 -3 6.4949298 -3 2 C-2.01 2 -1.02 2 0 2 C0 1.34 0 0.68 0 0 Z M4 9 C5 11 5 11 5 11 Z " fill="#FFB700" transform="translate(475,180)"/>
<path d="M0 0 C0.66 0.33 1.32 0.66 2 1 C-0.36292656 3.52588702 -1.66462511 4.88820837 -5 6 C-6.59189799 7.45923982 -8.0071307 9.00806079 -9.4375 10.625 C-11.29833666 12.26253626 -12.58111735 12.56020316 -15 13 C-15.70125 13.20625 -16.4025 13.4125 -17.125 13.625 C-19 14 -19 14 -21 13 C-18 11 -18 11 -15 11 C-15 10.34 -15 9.68 -15 9 C-14.41992188 8.68546875 -13.83984375 8.3709375 -13.2421875 8.046875 C-8.67817073 5.54645657 -4.27883784 2.96227235 0 0 Z " fill="#FFB600" transform="translate(401,461)"/>
<path d="M0 0 C0.33 0.66 0.66 1.32 1 2 C1.66 2 2.32 2 3 2 C3.99 4.97 4.98 7.94 6 11 C6.66 11 7.32 11 8 11 C11 14.46153846 11 14.46153846 11 17 C11.66 17.33 12.32 17.66 13 18 C10.6953125 18.26171875 10.6953125 18.26171875 8 18 C6.3046875 16.20703125 6.3046875 16.20703125 4.875 13.8125 C4.37613281 12.99007812 3.87726563 12.16765625 3.36328125 11.3203125 C2.91339844 10.55460938 2.46351563 9.78890625 2 9 C1.360625 8.071875 0.72125 7.14375 0.0625 6.1875 C-1 4 -1 4 -0.6875 1.6875 C-0.460625 1.130625 -0.23375 0.57375 0 0 Z " fill="#FFB700" transform="translate(460,163)"/>
<path d="M0 0 C1.67293936 0.30027117 3.33985384 0.63557767 5 1 C5.99 0.67 6.98 0.34 8 0 C8.33 0.99 8.66 1.98 9 3 C3.54873741 5.23891142 -1.13190493 6.47606294 -7 7 C-4.66666667 4.66666667 -2.33333333 2.33333333 0 0 Z " fill="#FFB600" transform="translate(360,557)"/>
<path d="M0 0 C3.82476844 1.27492281 4.58306598 2.85208255 6.875 6.125 C7.57367188 7.11371094 8.27234375 8.10242188 8.9921875 9.12109375 C9.98605469 10.54615234 9.98605469 10.54615234 11 12 C11.99825617 13.397081 12.99791143 14.79316533 14 16.1875 C14.66 17.115625 15.32 18.04375 16 19 C13.01643339 17.68898456 11.23661285 16.41492374 9.23828125 13.84765625 C8.75939453 13.23599609 8.28050781 12.62433594 7.78710938 11.99414062 C7.30048828 11.35669922 6.81386719 10.71925781 6.3125 10.0625 C5.56516602 9.11213867 5.56516602 9.11213867 4.80273438 8.14257812 C2.66367268 5.38240489 1.11687174 3.35061523 0 0 Z " fill="#FFB700" transform="translate(57,458)"/>
<path d="M0 0 C-0.99 0.33 -1.98 0.66 -3 1 C-3 1.66 -3 2.32 -3 3 C-6.78187881 4.83691257 -8.94568308 5.15837626 -13 4 C-10.81006393 1.81006393 -9.4012702 1.27802011 -6.5 0.3125 C-5.7059375 0.04050781 -4.911875 -0.23148437 -4.09375 -0.51171875 C-2 -1 -2 -1 0 0 Z " fill="#FFB600" transform="translate(366,477)"/>
<path d="M0 0 C4.61513112 1.31860889 8.09897612 3.21355437 12 6 C11.01 6.495 11.01 6.495 10 7 C7.98199105 6.03685937 5.98450156 5.03041427 4 4 C2.01132287 3.30028027 0.01391949 2.62335603 -2 2 C-1.34 1.34 -0.68 0.68 0 0 Z " fill="#FFB700" transform="translate(146,528)"/>
<path d="M0 0 C0.53625 0.226875 1.0725 0.45375 1.625 0.6875 C-1.22910334 2.19310497 -4.05624642 3.31966796 -7.125 4.3125 C-7.92421875 4.57289062 -8.7234375 4.83328125 -9.546875 5.1015625 C-10.15015625 5.29492188 -10.7534375 5.48828125 -11.375 5.6875 C-8.25679775 2.39349406 -4.76724115 -0.62726857 0 0 Z " fill="#FFB500" transform="translate(154.375,29.3125)"/>
<path d="M0 0 C-4.98229776 1.91626837 -9.72684667 2.5547115 -15 3 C-12.50497077 0.50497077 -10.94071581 0.41462527 -7.5 -0.1875 C-6.5203125 -0.36667969 -5.540625 -0.54585938 -4.53125 -0.73046875 C-2 -1 -2 -1 0 0 Z " fill="#FFB500" transform="translate(238,4)"/>
<path d="M0 0 C-0.33 0.99 -0.66 1.98 -1 3 C-1.99 3 -2.98 3 -4 3 C-3.67 3.99 -3.34 4.98 -3 6 C-3.99 6 -4.98 6 -6 6 C-6.33 5.34 -6.66 4.68 -7 4 C-7.66 3.67 -8.32 3.34 -9 3 C-2.25 0 -2.25 0 0 0 Z " fill="#FFB600" transform="translate(379,475)"/>
<path d="M0 0 C-2.05922402 2.05922402 -6.21708124 1.41427579 -9.0625 1.5625 C-10.20041992 1.62727539 -10.20041992 1.62727539 -11.36132812 1.69335938 C-13.24065438 1.79973633 -15.12030244 1.90039934 -17 2 C-17 1.67 -17 1.34 -17 1 C-14.54256214 0.63826036 -12.08441207 0.28531831 -9.625 -0.0625 C-8.57699219 -0.2181543 -8.57699219 -0.2181543 -7.5078125 -0.37695312 C-2.2265625 -1.11328125 -2.2265625 -1.11328125 0 0 Z " fill="#FFB700" transform="translate(318,490)"/>
<path d="M0 0 C0 0.66 0 1.32 0 2 C-2.875 2.625 -2.875 2.625 -6 3 C-6.66 2.34 -7.32 1.68 -8 1 C-4.93251126 -0.86240388 -3.40254489 -1.2151946 0 0 Z " fill="#FFB800" transform="translate(348,564)"/>
<path d="M0 0 C0.66 0.33 1.32 0.66 2 1 C0.35 2.65 -1.3 4.3 -3 6 C-3.99 5.67 -4.98 5.34 -6 5 C-2.25 1.125 -2.25 1.125 0 0 Z " fill="#FFB600" transform="translate(409,456)"/>
<path d="M0 0 C0.66 0.33 1.32 0.66 2 1 C0.95125002 3.62187494 0.35068687 4.79371361 -2.125 6.25 C-2.74375 6.4975 -3.3625 6.745 -4 7 C-4.66 6.34 -5.32 5.68 -6 5 C-5.195625 4.731875 -4.39125 4.46375 -3.5625 4.1875 C-2.716875 3.795625 -1.87125 3.40375 -1 3 C-0.67 2.01 -0.34 1.02 0 0 Z " fill="#FFB500" transform="translate(414,447)"/>
<path d="M0 0 C4.43458973 1.3937282 6.87378374 3.60582235 10 7 C5.56541027 5.6062718 3.12621626 3.39417765 0 0 Z " fill="#FFB700" transform="translate(119,521)"/>
<path d="M0 0 C0 0.33 0 0.66 0 1 C-3.3 1.33 -6.6 1.66 -10 2 C-10 1.34 -10 0.68 -10 0 C-6.30581799 -1.231394 -3.7943739 -0.64432764 0 0 Z " fill="#FFB400" transform="translate(337,487)"/>
<path d="M0 0 C0 4.38968456 -2.12805101 5.76905739 -5 9 C-5.66 8.67 -6.32 8.34 -7 8 C-4.69 5.36 -2.38 2.72 0 0 Z " fill="#FFB800" transform="translate(443,421)"/>
<path d="M0 0 C1.485 0.99 1.485 0.99 3 2 C3.1875 4.625 3.1875 4.625 3 7 C2.01 7.33 1.02 7.66 0 8 C0 5.36 0 2.72 0 0 Z " fill="#FFB500" transform="translate(492,294)"/>
<path d="M0 0 C6.52307692 -0.36923077 6.52307692 -0.36923077 8.9375 1.5 C9.288125 1.995 9.63875 2.49 10 3 C9.01 3.33 8.02 3.66 7 4 C7 3.34 7 2.68 7 2 C5.02 2 3.04 2 1 2 C0.67 1.34 0.34 0.68 0 0 Z " fill="#FFB400" transform="translate(353,90)"/>
<path d="M0 0 C1.5 1.375 1.5 1.375 3 3 C3 3.66 3 4.32 3 5 C1.68 4.67 0.36 4.34 -1 4 C-1 1 -1 1 0 0 Z " fill="#FFB600" transform="translate(135,519)"/>
<path d="M0 0 C-0.66 0.66 -1.32 1.32 -2 2 C-5.125 1.625 -5.125 1.625 -8 1 C-4.93251126 -0.86240388 -3.40254489 -1.2151946 0 0 Z " fill="#FFB600" transform="translate(354,482)"/>
<path d="M0 0 C0.66 0.33 1.32 0.66 2 1 C-0.31 2.32 -2.62 3.64 -5 5 C-5.33 4.34 -5.66 3.68 -6 3 C-4.03533587 1.93224776 -2.03144641 0.93446535 0 0 Z " fill="#FFB500" transform="translate(380,469)"/>
<path d="M0 0 C0.99 0 1.98 0 3 0 C2.42655063 2.86724686 2.1385485 3.8614515 0 6 C-0.38218767 4.34385343 -0.71395102 2.67542976 -1 1 C-0.67 0.67 -0.34 0.34 0 0 Z " fill="#FFB700" transform="translate(525,439)"/>
<path d="M0 0 C1.32 1.32 2.64 2.64 4 4 C2.68 4.33 1.36 4.66 0 5 C-0.5625 3.0625 -0.5625 3.0625 -1 1 C-0.67 0.67 -0.34 0.34 0 0 Z " fill="#FFB200" transform="translate(326,563)"/>
<path d="M0 0 C1.98 1.65 3.96 3.3 6 5 C5.67 5.66 5.34 6.32 5 7 C3.29115995 5.37660195 1.62553283 3.70680947 0 2 C0 1.34 0 0.68 0 0 Z " fill="#FFB700" transform="translate(75,480)"/>
<path d="M0 0 C0.625 1.8125 0.625 1.8125 1 4 C0.34 4.99 -0.32 5.98 -1 7 C-1.625 5.1875 -1.625 5.1875 -2 3 C-1.34 2.01 -0.68 1.02 0 0 Z " fill="#FFB600" transform="translate(532,363)"/>
<path d="M0 0 C2.62187494 1.04874998 3.79371361 1.64931313 5.25 4.125 C5.4975 4.74375 5.745 5.3625 6 6 C3.97945196 4.35830472 1.97956942 2.69088222 0 1 C0 0.67 0 0.34 0 0 Z " fill="#FFB800" transform="translate(108,512)"/>
<path d="M0 0 C0.33 0.66 0.66 1.32 1 2 C-1.375 3.5625 -1.375 3.5625 -4 5 C-4.66 4.67 -5.32 4.34 -6 4 C-4.02 2.68 -2.04 1.36 0 0 Z " fill="#FFB800" transform="translate(396,460)"/>
<path d="M0 0 C1.98 0.99 1.98 0.99 4 2 C4 2.99 4 3.98 4 5 C2.64567325 3.68799596 1.31266518 2.35368596 0 1 C0 0.67 0 0.34 0 0 Z " fill="#FFB700" transform="translate(87,493)"/>
<path d="M0 0 C1.65 0 3.3 0 5 0 C4.67 0.66 4.34 1.32 4 2 C2.68 2 1.36 2 0 2 C0 1.34 0 0.68 0 0 Z " fill="#FFB700" transform="translate(348,562)"/>
<path d="M0 0 C1.65 0 3.3 0 5 0 C4.01 1.485 4.01 1.485 3 3 C2.34 3 1.68 3 1 3 C0.67 2.01 0.34 1.02 0 0 Z " fill="#FFB700" transform="translate(425,531)"/>
<path d="M0 0 C1.98 0.99 1.98 0.99 4 2 C4 2.99 4 3.98 4 5 C2.68 3.35 1.36 1.7 0 0 Z " fill="#FFB600" transform="translate(81,487)"/>
<path d="M0 0 C0 0.66 0 1.32 0 2 C-0.99 2 -1.98 2 -3 2 C-3.33 2.66 -3.66 3.32 -4 4 C-4 3.01 -4 2.02 -4 1 C-2 0 -2 0 0 0 Z " fill="#FFB700" transform="translate(402,457)"/>
<path d="M0 0 C0.66 0.33 1.32 0.66 2 1 C0.515 3.475 0.515 3.475 -1 6 C-1 3 -1 3 0 0 Z " fill="#FFB600" transform="translate(534,367)"/>
<path d="M0 0 C1.98 0.495 1.98 0.495 4 1 C2.35 1.33 0.7 1.66 -1 2 C-0.67 1.34 -0.34 0.68 0 0 Z " fill="#FFB600" transform="translate(335,564)"/>
<path d="M0 0 C0.66 0.33 1.32 0.66 2 1 C-0.475 2.485 -0.475 2.485 -3 4 C-3 3.34 -3 2.68 -3 2 C-2.01 1.34 -1.02 0.68 0 0 Z " fill="#FFB600" transform="translate(397,547)"/>
<path d="M0 0 C0.66 0 1.32 0 2 0 C2 0.99 2 1.98 2 3 C1.01 3.33 0.02 3.66 -1 4 C-0.67 2.68 -0.34 1.36 0 0 Z " fill="#FFB600" transform="translate(419,443)"/>
<path d="M0 0 C0.66 0 1.32 0 2 0 C1.67 0.99 1.34 1.98 1 3 C0.34 3 -0.32 3 -1 3 C-0.67 2.01 -0.34 1.02 0 0 Z " fill="#FFB700" transform="translate(433,431)"/>
<path d="M0 0 C0.33 1.32 0.66 2.64 1 4 C0.34 4 -0.32 4 -1 4 C-0.67 2.68 -0.34 1.36 0 0 Z " fill="#FFB600" transform="translate(499,325)"/>
<path d="M0 0 C1.65 0 3.3 0 5 0 C3.02 0.99 3.02 0.99 1 2 C0.67 1.34 0.34 0.68 0 0 Z " fill="#FFB500" transform="translate(339,570)"/>
<path d="M0 0 C1.98 0.495 1.98 0.495 4 1 C2.35 1.33 0.7 1.66 -1 2 C-0.67 1.34 -0.34 0.68 0 0 Z " fill="#FFB700" transform="translate(366,563)"/>
<path d="M0 0 C1.98 0.99 1.98 0.99 4 2 C3.01 2 2.02 2 1 2 C0.67 1.34 0.34 0.68 0 0 Z " fill="#FFB600" transform="translate(164,538)"/>
<path d="M0 0 C1.32 0.33 2.64 0.66 4 1 C3.01 1.33 2.02 1.66 1 2 C0.67 1.34 0.34 0.68 0 0 Z " fill="#FFB700" transform="translate(336,485)"/>
<path d="M0 0 C1.32 0.33 2.64 0.66 4 1 C3.01 1.33 2.02 1.66 1 2 C0.67 1.34 0.34 0.68 0 0 Z " fill="#FFB600" transform="translate(181,463)"/>
<path d="M0 0 C0.99 0.33 1.98 0.66 3 1 C2.01 1.66 1.02 2.32 0 3 C0 2.01 0 1.02 0 0 Z " fill="#FFB900" transform="translate(495,322)"/>
<path d="M0 0 C0.66 0.33 1.32 0.66 2 1 C1.34 1.66 0.68 2.32 0 3 C0 2.01 0 1.02 0 0 Z " fill="#FFB900" transform="translate(263,568)"/>
<path d="M0 0 C1.485 0.99 1.485 0.99 3 2 C1.68 1.67 0.36 1.34 -1 1 C-0.67 0.67 -0.34 0.34 0 0 Z " fill="#FFB500" transform="translate(332,566)"/>
<path d="M0 0 C0.66 0.66 1.32 1.32 2 2 C0.68 1.67 -0.64 1.34 -2 1 C-1.34 0.67 -0.68 0.34 0 0 Z " fill="#FFB300" transform="translate(307,567)"/>
<path d="M0 0 C0.99 0.33 1.98 0.66 3 1 C2.67 1.66 2.34 2.32 2 3 C1.34 2.01 0.68 1.02 0 0 Z " fill="#FFB500" transform="translate(92,498)"/>
<path d="M0 0 C1.32 0 2.64 0 4 0 C3.67 0.66 3.34 1.32 3 2 C2.01 1.34 1.02 0.68 0 0 Z " fill="#FFB800" transform="translate(336,489)"/>
<path d="M0 0 C0.66 0.33 1.32 0.66 2 1 C0.68 1.33 -0.64 1.66 -2 2 C-1.34 1.34 -0.68 0.68 0 0 Z " fill="#FFB400" transform="translate(369,474)"/>
<path d="M0 0 C0.66 0.33 1.32 0.66 2 1 C1.01 1.66 0.02 2.32 -1 3 C-0.67 2.01 -0.34 1.02 0 0 Z " fill="#FFB600" transform="translate(502,474)"/>
<path d="M0 0 C0.99 0.33 1.98 0.66 3 1 C1.68 1.33 0.36 1.66 -1 2 C-0.67 1.34 -0.34 0.68 0 0 Z " fill="#FFB500" transform="translate(403,455)"/>
<path d="M0 0 C0.66 1.32 1.32 2.64 2 4 C1.34 3.67 0.68 3.34 0 3 C0 2.01 0 1.02 0 0 Z " fill="#FFBA00" transform="translate(563,229)"/>
<path d="M0 0 C0.66 0 1.32 0 2 0 C1.67 0.99 1.34 1.98 1 3 C0.67 2.01 0.34 1.02 0 0 Z " fill="#FFB400" transform="translate(506,222)"/>
<path d="M0 0 C0.66 0.33 1.32 0.66 2 1 C1.67 1.66 1.34 2.32 1 3 C0.34 2.67 -0.32 2.34 -1 2 C-0.67 1.34 -0.34 0.68 0 0 Z " fill="#FFB500" transform="translate(30,148)"/>
<path d="M0 0 C0.66 0 1.32 0 2 0 C2 0.66 2 1.32 2 2 C1.34 2 0.68 2 0 2 C0 1.34 0 0.68 0 0 Z " fill="#FFB100" transform="translate(235,570)"/>
<path d="M0 0 C0.33 0.66 0.66 1.32 1 2 C0.01 1.67 -0.98 1.34 -2 1 C-1.34 0.67 -0.68 0.34 0 0 Z " fill="#FFBB00" transform="translate(317,564)"/>
<path d="M0 0 C0.66 0.33 1.32 0.66 2 1 C1.01 1 0.02 1 -1 1 C-0.67 0.67 -0.34 0.34 0 0 Z " fill="#FFB500" transform="translate(311,564)"/>
<path d="M0 0 C0.66 0 1.32 0 2 0 C2 0.66 2 1.32 2 2 C1.34 2 0.68 2 0 2 C0 1.34 0 0.68 0 0 Z " fill="#FFB300" transform="translate(179,544)"/>
<path d="M0 0 C0.99 0.33 1.98 0.66 3 1 C2.01 1 1.02 1 0 1 C0 0.67 0 0.34 0 0 Z " fill="#FFB500" transform="translate(129,528)"/>
<path d="M0 0 C0.66 0.33 1.32 0.66 2 1 C1.01 1 0.02 1 -1 1 C-0.67 0.67 -0.34 0.34 0 0 Z " fill="#FFB600" transform="translate(324,487)"/>
<path d="M0 0 C0.66 0.33 1.32 0.66 2 1 C1.01 1 0.02 1 -1 1 C-0.67 0.67 -0.34 0.34 0 0 Z " fill="#FFB500" transform="translate(342,483)"/>
<path d="M0 0 C0.66 0.33 1.32 0.66 2 1 C1.01 1 0.02 1 -1 1 C-0.67 0.67 -0.34 0.34 0 0 Z " fill="#FFB600" transform="translate(425,439)"/>
<path d="M0 0 C0.99 0.495 0.99 0.495 2 1 C1.34 1.66 0.68 2.32 0 3 C0 2.01 0 1.02 0 0 Z " fill="#FFB300" transform="translate(509,371)"/>
<path d="M0 0 C1 4 1 4 1 4 Z " fill="#FFB700" transform="translate(511,224)"/>
<path d="M0 0 C0.99 0.33 1.98 0.66 3 1 C2.01 1 1.02 1 0 1 C0 0.67 0 0.34 0 0 Z " fill="#FFB600" transform="translate(408,116)"/>
<path d="M0 0 C0.66 0.33 1.32 0.66 2 1 C1.01 1 0.02 1 -1 1 C-0.67 0.67 -0.34 0.34 0 0 Z " fill="#FFB500" transform="translate(141,35)"/>
<path d="M0 0 C3 1 3 1 3 1 Z " fill="#FFB900" transform="translate(334,570)"/>
<path d="M0 0 C3 1 3 1 3 1 Z " fill="#FFB600" transform="translate(318,569)"/>
<path d="M0 0 C0.99 0.495 0.99 0.495 2 1 C1.01 1.495 1.01 1.495 0 2 C0 1.34 0 0.68 0 0 Z " fill="#FFB400" transform="translate(301,566)"/>
<path d="M0 0 C3 1 3 1 3 1 Z " fill="#FFB700" transform="translate(285,566)"/>
<path d="M0 0 C0.99 0.495 0.99 0.495 2 1 C1.01 1.495 1.01 1.495 0 2 C0 1.34 0 0.68 0 0 Z " fill="#FFAF00" transform="translate(379,557)"/>
<path d="M0 0 C3 1 3 1 3 1 Z " fill="#FFB700" transform="translate(319,489)"/>
<path d="M0 0 C3 1 3 1 3 1 Z " fill="#FFB500" transform="translate(356,486)"/>
<path d="M0 0 C0.99 0.495 0.99 0.495 2 1 C1.01 1.495 1.01 1.495 0 2 C0 1.34 0 0.68 0 0 Z " fill="#FFB500" transform="translate(365,482)"/>
<path d="M0 0 C0.99 0.495 0.99 0.495 2 1 C1.01 1.495 1.01 1.495 0 2 C0 1.34 0 0.68 0 0 Z " fill="#FFB500" transform="translate(380,476)"/>
<path d="M0 0 C0.33 0.66 0.66 1.32 1 2 C0.34 1.67 -0.32 1.34 -1 1 C-0.67 0.67 -0.34 0.34 0 0 Z " fill="#FFB800" transform="translate(506,467)"/>
<path d="M0 0 C0.33 0.66 0.66 1.32 1 2 C0.34 1.67 -0.32 1.34 -1 1 C-0.67 0.67 -0.34 0.34 0 0 Z " fill="#FFB800" transform="translate(505,465)"/>
<path d="M0 0 C0.33 0.66 0.66 1.32 1 2 C0.34 1.67 -0.32 1.34 -1 1 C-0.67 0.67 -0.34 0.34 0 0 Z " fill="#FFB800" transform="translate(388,464)"/>
<path d="M0 0 C0.99 0.495 0.99 0.495 2 1 C1.01 1.495 1.01 1.495 0 2 C0 1.34 0 0.68 0 0 Z " fill="#FFB600" transform="translate(421,441)"/>
<path d="M0 0 C0.99 0.495 0.99 0.495 2 1 C1.01 1.495 1.01 1.495 0 2 C0 1.34 0 0.68 0 0 Z " fill="#FFB900" transform="translate(429,435)"/>
<path d="" fill="#FFB700" transform="translate(0,0)"/>
<path d="M0 0 C0.33 0.66 0.66 1.32 1 2 C0.34 1.67 -0.32 1.34 -1 1 C-0.67 0.67 -0.34 0.34 0 0 Z " fill="#FFB500" transform="translate(525,280)"/>
<path d="" fill="#FFB900" transform="translate(0,0)"/>
<path d="M0 0 C0.66 0 1.32 0 2 0 C1.67 0.66 1.34 1.32 1 2 C0.67 1.34 0.34 0.68 0 0 Z " fill="#FFB700" transform="translate(471,170)"/>
<path d="M0 0 C0.66 0 1.32 0 2 0 C1.67 0.66 1.34 1.32 1 2 C0.67 1.34 0.34 0.68 0 0 Z " fill="#FFB700" transform="translate(333,84)"/>
<path d="M0 0 C0.99 0.495 0.99 0.495 2 1 C1.01 1.495 1.01 1.495 0 2 C0 1.34 0 0.68 0 0 Z " fill="#FFB100" transform="translate(156,27)"/>
<path d="M0 0 C0.99 0.495 0.99 0.495 2 1 C1.01 1.495 1.01 1.495 0 2 C0 1.34 0 0.68 0 0 Z " fill="#FFB500" transform="translate(178,19)"/>
<path d="M0 0 C0.99 0.495 0.99 0.495 2 1 C1.01 1.495 1.01 1.495 0 2 C0 1.34 0 0.68 0 0 Z " fill="#FFB600" transform="translate(244,2)"/>
<path d="M0 0 C3 1 3 1 3 1 Z " fill="#FFB400" transform="translate(273,0)"/>
<path d="M0 0 C2 1 2 1 2 1 Z " fill="#FFB900" transform="translate(315,574)"/>
<path d="M0 0 C2 1 2 1 2 1 Z " fill="#FFB300" transform="translate(301,572)"/>
<path d="M0 0 C2 1 2 1 2 1 Z " fill="#FFB600" transform="translate(315,569)"/>
<path d="M0 0 C2 1 2 1 2 1 Z " fill="#FFBF00" transform="translate(290,569)"/>
<path d="M0 0 C2 1 2 1 2 1 Z " fill="#FFB700" transform="translate(343,568)"/>
<path d="M0 0 C2 1 2 1 2 1 Z " fill="#FFB300" transform="translate(258,568)"/>
<path d="" fill="#FFAF00" transform="translate(0,0)"/>
<path d="M0 0 C2 1 2 1 2 1 Z " fill="#FFB300" transform="translate(330,565)"/>
<path d="M0 0 C2 1 2 1 2 1 Z " fill="#FFBE00" transform="translate(261,565)"/>
<path d="M0 0 C2 1 2 1 2 1 Z " fill="#FFAF00" transform="translate(362,563)"/>
<path d="M0 0 C2 1 2 1 2 1 Z " fill="#FFBA00" transform="translate(248,563)"/>
<path d="M0 0 C2 1 2 1 2 1 Z " fill="#FFB200" transform="translate(334,562)"/>
<path d="M0 0 C2 1 2 1 2 1 Z " fill="#FFB500" transform="translate(209,562)"/>
<path d="M0 0 C2 1 2 1 2 1 Z " fill="#FFB300" transform="translate(343,561)"/>
<path d="M0 0 C2 1 2 1 2 1 Z " fill="#FFB400" transform="translate(374,559)"/>
<path d="M0 0 C2 1 2 1 2 1 Z " fill="#FFB700" transform="translate(383,557)"/>
<path d="M0 0 C2 1 2 1 2 1 Z " fill="#FFB700" transform="translate(394,552)"/>
<path d="M0 0 C2 1 2 1 2 1 Z " fill="#FFB700" transform="translate(181,547)"/>
<path d="M0 0 C2 1 2 1 2 1 Z " fill="#FFB900" transform="translate(368,479)"/>
<path d="M0 0 C2 1 2 1 2 1 Z " fill="#FFB700" transform="translate(371,473)"/>
<path d="M0 0 C2 1 2 1 2 1 Z " fill="#FFB600" transform="translate(393,471)"/>
<path d="M0 0 C2 1 2 1 2 1 Z " fill="#FFAF00" transform="translate(384,466)"/>
<path d="M0 0 C2 1 2 1 2 1 Z " fill="#FFB900" transform="translate(170,456)"/>
<path d="" fill="#FFB300" transform="translate(0,0)"/>
<path d="" fill="#FFB300" transform="translate(0,0)"/>
<path d="" fill="#FFB300" transform="translate(0,0)"/>
<path d="" fill="#FFB900" transform="translate(0,0)"/>
<path d="" fill="#FFBB00" transform="translate(0,0)"/>
<path d="" fill="#FFB700" transform="translate(0,0)"/>
<path d="" fill="#FFAF00" transform="translate(0,0)"/>
<path d="" fill="#FFB600" transform="translate(0,0)"/>
<path d="" fill="#FFB700" transform="translate(0,0)"/>
<path d="" fill="#FFBB00" transform="translate(0,0)"/>
<path d="" fill="#FFBF00" transform="translate(0,0)"/>
<path d="" fill="#FFAF00" transform="translate(0,0)"/>
<path d="" fill="#FFB700" transform="translate(0,0)"/>
<path d="M0 0 C2 1 2 1 2 1 Z " fill="#FFB700" transform="translate(507,229)"/>
<path d="" fill="#FFB700" transform="translate(0,0)"/>
<path d="" fill="#FFB200" transform="translate(0,0)"/>
<path d="M0 0 C2 1 2 1 2 1 Z " fill="#FFBA00" transform="translate(239,88)"/>
<path d="M0 0 C2 1 2 1 2 1 Z " fill="#FFB900" transform="translate(321,82)"/>
<path d="M0 0 C2 1 2 1 2 1 Z " fill="#FFAF00" transform="translate(239,3)"/>
<path d="" fill="#FFB700" transform="translate(0,0)"/>
<path d="" fill="#FFBA00" transform="translate(0,0)"/>
<path d="" fill="#FFB700" transform="translate(0,0)"/>
<path d="" fill="#FFB500" transform="translate(0,0)"/>
<path d="" fill="#FFB700" transform="translate(0,0)"/>
<path d="" fill="#FFB700" transform="translate(0,0)"/>
<path d="" fill="#FFB500" transform="translate(0,0)"/>
<path d="" fill="#FFB700" transform="translate(0,0)"/>
<path d="" fill="#FFB700" transform="translate(0,0)"/>
<path d="" fill="#FFBD00" transform="translate(0,0)"/>
<path d="" fill="#FFB700" transform="translate(0,0)"/>
<path d="" fill="#FFB700" transform="translate(0,0)"/>
<path d="" fill="#FFBA00" transform="translate(0,0)"/>
<path d="" fill="#FFB700" transform="translate(0,0)"/>
<path d="" fill="#FFB500" transform="translate(0,0)"/>
<path d="" fill="#FFAF00" transform="translate(0,0)"/>
<path d="" fill="#FFB700" transform="translate(0,0)"/>
<path d="" fill="#FFB500" transform="translate(0,0)"/>
<path d="" fill="#FFB700" transform="translate(0,0)"/>
<path d="" fill="#FFB700" transform="translate(0,0)"/>
<path d="" fill="#FFBA00" transform="translate(0,0)"/>
<path d="" fill="#FFAF00" transform="translate(0,0)"/>
<path d="" fill="#FFBF00" transform="translate(0,0)"/>
<path d="" fill="#FFB700" transform="translate(0,0)"/>
<path d="" fill="#FFAF00" transform="translate(0,0)"/>
<path d="" fill="#FFB700" transform="translate(0,0)"/>
<path d="" fill="#FFBA00" transform="translate(0,0)"/>
<path d="" fill="#FFB700" transform="translate(0,0)"/>
<path d="" fill="#FFAF00" transform="translate(0,0)"/>
<path d="" fill="#FFB700" transform="translate(0,0)"/>
<path d="" fill="#FFBF00" transform="translate(0,0)"/>
<path d="" fill="#FFB500" transform="translate(0,0)"/>
<path d="" fill="#FFB700" transform="translate(0,0)"/>
<path d="" fill="#FFBA00" transform="translate(0,0)"/>
<path d="" fill="#FFBA00" transform="translate(0,0)"/>
<path d="" fill="#FFB700" transform="translate(0,0)"/>
<path d="" fill="#FFB500" transform="translate(0,0)"/>
<path d="" fill="#FFB700" transform="translate(0,0)"/>
<path d="" fill="#FFAF00" transform="translate(0,0)"/>
<path d="" fill="#FFB600" transform="translate(0,0)"/>
<path d="" fill="#FFAF00" transform="translate(0,0)"/>
<path d="" fill="#FFB700" transform="translate(0,0)"/>
<path d="" fill="#FFB700" transform="translate(0,0)"/>
<path d="" fill="#FFB700" transform="translate(0,0)"/>
<path d="" fill="#FFBF00" transform="translate(0,0)"/>
<path d="" fill="#FFAF00" transform="translate(0,0)"/>
<path d="" fill="#FFAF00" transform="translate(0,0)"/>
<path d="" fill="#FFBF00" transform="translate(0,0)"/>
<path d="" fill="#FFB500" transform="translate(0,0)"/>
<path d="" fill="#FFBA00" transform="translate(0,0)"/>
<path d="" fill="#FFB700" transform="translate(0,0)"/>
<path d="" fill="#FFBF00" transform="translate(0,0)"/>
<path d="" fill="#FFBF00" transform="translate(0,0)"/>
<path d="" fill="#FFBD00" transform="translate(0,0)"/>
<path d="" fill="#FFB700" transform="translate(0,0)"/>
<path d="" fill="#FFAF00" transform="translate(0,0)"/>
<path d="" fill="#FFBA00" transform="translate(0,0)"/>
<path d="" fill="#FFB700" transform="translate(0,0)"/>
<path d="" fill="#FFBD00" transform="translate(0,0)"/>
<path d="" fill="#FFAF00" transform="translate(0,0)"/>
<path d="" fill="#FFAF00" transform="translate(0,0)"/>
<path d="" fill="#FFAF00" transform="translate(0,0)"/>
<path d="" fill="#FFAF00" transform="translate(0,0)"/>
<path d="" fill="#FFB700" transform="translate(0,0)"/>
<path d="" fill="#FFB700" transform="translate(0,0)"/>
<path d="" fill="#FFAF00" transform="translate(0,0)"/>
<path d="" fill="#FFB700" transform="translate(0,0)"/>
<path d="" fill="#FFAF00" transform="translate(0,0)"/>
<path d="" fill="#FFAF00" transform="translate(0,0)"/>
</svg>
