<?xml version="1.0" encoding="UTF-8"?>
<svg version="1.1" xmlns="http://www.w3.org/2000/svg" width="400" height="399">
<path d="M0 0 C2.0201617 0.01074035 4.03943477 0.00000994 6.05957031 -0.01269531 C30.2783847 -0.04130974 55.2648258 5.05642248 78.02050781 13.26074219 C79.261875 13.69902344 80.50324219 14.13730469 81.78222656 14.58886719 C106.45038528 23.86942852 126.58936756 37.65350823 145.02050781 56.26074219 C145.7875 57.0303125 146.55449219 57.79988281 147.34472656 58.59277344 C166.9152708 79.13375789 175.61076787 102.85152118 175.30175781 130.98339844 C174.73266923 151.86041326 170.69775012 172.6365358 166.41601562 193.02539062 C165.93339428 195.37474975 165.93339428 195.37474975 166.02050781 198.26074219 C166.74238281 198.17824219 167.46425781 198.09574219 168.20800781 198.01074219 C172.02245317 198.349804 173.32537923 199.56561361 176.02050781 202.26074219 C178.88372464 206.2847226 180.8623108 209.68780554 180.61035156 214.80761719 C179.13001197 220.96426133 175.75414547 228.71884264 171.07128906 233.07324219 C164.08766626 237.11709234 155.96721376 238.25727444 148.02050781 237.26074219 C144.83300781 235.76074219 144.83300781 235.76074219 143.02050781 234.26074219 C142.74851562 234.8446875 142.47652344 235.42863281 142.19628906 236.03027344 C136.95199561 245.97875038 126.51323504 252.29535608 116.89550781 257.51074219 C109.97623868 261.68004538 104.42600015 269.65250369 100.02050781 276.26074219 C99.36050781 276.26074219 98.70050781 276.26074219 98.02050781 276.26074219 C98.02050781 274.28074219 98.02050781 272.30074219 98.02050781 270.26074219 C88.65111381 271.54171402 81.48914545 272.83748181 75.02050781 280.26074219 C74.31152344 281.02515625 73.60253906 281.78957031 72.87207031 282.57714844 C70.23517431 285.46631066 67.67552863 288.33478819 65.41503906 291.53027344 C64.95484375 292.10132813 64.49464844 292.67238281 64.02050781 293.26074219 C63.36050781 293.26074219 62.70050781 293.26074219 62.02050781 293.26074219 C62.02050781 290.29074219 62.02050781 287.32074219 62.02050781 284.26074219 C56.68968249 290.04172609 51.5855846 295.85173242 47.02050781 302.26074219 C46.16391647 299.17989264 45.75109413 296.19282218 45.45800781 293.01074219 C45.37421875 292.11871094 45.29042969 291.22667969 45.20410156 290.30761719 C45.14351562 289.63214844 45.08292969 288.95667969 45.02050781 288.26074219 C39.88623717 296.04797942 35.33959779 304.00327229 31.02050781 312.26074219 C30.03050781 312.26074219 29.04050781 312.26074219 28.02050781 312.26074219 C26.37050781 307.31074219 24.72050781 302.36074219 23.02050781 297.26074219 C20.46975586 301.53430751 20.46975586 301.53430751 17.93505859 305.81738281 C17.01713612 307.33230172 16.02059757 308.79876358 15.02050781 310.26074219 C14.36050781 310.26074219 13.70050781 310.26074219 13.02050781 310.26074219 C12.69050781 309.25011719 12.36050781 308.23949219 12.02050781 307.19824219 C9.97375246 302.30599768 6.11124729 299.45754335 2.02050781 296.26074219 C1.90835938 296.93492187 1.79621094 297.60910156 1.68066406 298.30371094 C0.8913028 301.8394889 -0.29449067 305.18017784 -1.54199219 308.57324219 C-1.77595703 309.21841797 -2.00992188 309.86359375 -2.25097656 310.52832031 C-2.82396226 312.10695438 -3.40128683 313.68401244 -3.97949219 315.26074219 C-4.96949219 315.26074219 -5.95949219 315.26074219 -6.97949219 315.26074219 C-7.25921875 314.44992187 -7.53894531 313.63910156 -7.82714844 312.80371094 C-12.08254607 299.81355644 -12.08254607 299.81355644 -20.97949219 290.26074219 C-22.95949219 294.22074219 -24.93949219 298.18074219 -26.97949219 302.26074219 C-27.96949219 302.26074219 -28.95949219 302.26074219 -29.97949219 302.26074219 C-30.19863281 301.62007813 -30.41777344 300.97941406 -30.64355469 300.31933594 C-30.96066406 299.454375 -31.27777344 298.58941406 -31.60449219 297.69824219 C-31.90613281 296.85132813 -32.20777344 296.00441406 -32.51855469 295.13183594 C-36.0947745 288.10370342 -41.25642342 284.07934917 -47.91699219 280.13574219 C-56.74375804 274.66493132 -64.34452278 268.26700007 -71.97949219 261.26074219 C-73.08618787 260.25284716 -74.19295646 259.24503218 -75.29980469 258.23730469 C-77.31343874 256.39835106 -79.31971088 254.5521834 -81.32324219 252.70214844 C-84.27829296 249.98610913 -87.26192479 247.31159883 -90.31152344 244.70214844 C-91.78136263 243.43195953 -93.1977609 242.10048627 -94.60449219 240.76074219 C-96.96207155 238.94907609 -96.96207155 238.94907609 -100.16699219 239.44824219 C-102.90112186 240.14597143 -102.90112186 240.14597143 -104.97949219 241.26074219 C-113.35969542 242.1586211 -119.79352726 238.92621491 -126.35449219 233.82324219 C-131.09472342 229.19587361 -133.67340762 225.20007707 -134.14355469 218.57324219 C-133.85896669 214.56190667 -132.3724059 211.45629467 -129.97949219 208.26074219 C-126.99577501 205.93198732 -125.76358364 205.26074219 -121.97949219 205.26074219 C-122.65044922 203.84148437 -122.65044922 203.84148437 -123.33496094 202.39355469 C-126.70331048 195.09530828 -129.63200399 187.8237388 -131.79199219 180.07324219 C-131.98623779 179.38697754 -132.1804834 178.70071289 -132.38061523 177.99365234 C-135.72430008 165.43244016 -136.35151861 153.04906272 -136.29199219 140.13574219 C-136.29016937 139.31681488 -136.28834656 138.49788757 -136.28646851 137.65414429 C-136.24137419 125.6301187 -135.84841854 113.9911523 -132.97949219 102.26074219 C-132.80788574 101.52484863 -132.6362793 100.78895508 -132.45947266 100.03076172 C-127.31216222 78.3881383 -118.33171668 59.30806765 -103.97949219 42.26074219 C-103.45097656 41.51179688 -102.92246094 40.76285156 -102.37792969 39.99121094 C-101.91644531 39.42015625 -101.45496094 38.84910156 -100.97949219 38.26074219 C-100.31949219 38.26074219 -99.65949219 38.26074219 -98.97949219 38.26074219 C-98.73714844 37.68710938 -98.49480469 37.11347656 -98.24511719 36.52246094 C-89.97413926 21.74191705 -66.53865171 11.99861971 -51.39746094 7.19824219 C-47.1794009 6.04128858 -42.94235347 5.05599548 -38.66699219 4.13574219 C-37.93335449 3.97702637 -37.1997168 3.81831055 -36.44384766 3.65478516 C-24.32265821 1.16992826 -12.36527172 -0.077769 0 0 Z " fill="#2D2D2D" transform="translate(179.9794921875,42.7392578125)"/>
<path d="M0 0 C2.0201617 0.01074035 4.03943477 0.00000994 6.05957031 -0.01269531 C30.2783847 -0.04130974 55.2648258 5.05642248 78.02050781 13.26074219 C79.261875 13.69902344 80.50324219 14.13730469 81.78222656 14.58886719 C106.45038528 23.86942852 126.58936756 37.65350823 145.02050781 56.26074219 C145.7875 57.0303125 146.55449219 57.79988281 147.34472656 58.59277344 C166.9152708 79.13375789 175.61076787 102.85152118 175.30175781 130.98339844 C174.73266923 151.86041326 170.69775012 172.6365358 166.41601562 193.02539062 C165.93339428 195.37474975 165.93339428 195.37474975 166.02050781 198.26074219 C166.74238281 198.17824219 167.46425781 198.09574219 168.20800781 198.01074219 C172.02245317 198.349804 173.32537923 199.56561361 176.02050781 202.26074219 C178.88372464 206.2847226 180.8623108 209.68780554 180.61035156 214.80761719 C179.13001197 220.96426133 175.75414547 228.71884264 171.07128906 233.07324219 C164.08766626 237.11709234 155.96721376 238.25727444 148.02050781 237.26074219 C144.83300781 235.76074219 144.83300781 235.76074219 143.02050781 234.26074219 C142.74851562 234.8446875 142.47652344 235.42863281 142.19628906 236.03027344 C136.95199561 245.97875038 126.51323504 252.29535608 116.89550781 257.51074219 C109.97623868 261.68004538 104.42600015 269.65250369 100.02050781 276.26074219 C99.36050781 276.26074219 98.70050781 276.26074219 98.02050781 276.26074219 C98.02050781 274.28074219 98.02050781 272.30074219 98.02050781 270.26074219 C88.65111381 271.54171402 81.48914545 272.83748181 75.02050781 280.26074219 C74.31152344 281.02515625 73.60253906 281.78957031 72.87207031 282.57714844 C70.23517431 285.46631066 67.67552863 288.33478819 65.41503906 291.53027344 C64.95484375 292.10132813 64.49464844 292.67238281 64.02050781 293.26074219 C63.36050781 293.26074219 62.70050781 293.26074219 62.02050781 293.26074219 C62.02050781 290.29074219 62.02050781 287.32074219 62.02050781 284.26074219 C56.68968249 290.04172609 51.5855846 295.85173242 47.02050781 302.26074219 C46.16391647 299.17989264 45.75109413 296.19282218 45.45800781 293.01074219 C45.37421875 292.11871094 45.29042969 291.22667969 45.20410156 290.30761719 C45.14351562 289.63214844 45.08292969 288.95667969 45.02050781 288.26074219 C39.88623717 296.04797942 35.33959779 304.00327229 31.02050781 312.26074219 C30.03050781 312.26074219 29.04050781 312.26074219 28.02050781 312.26074219 C26.37050781 307.31074219 24.72050781 302.36074219 23.02050781 297.26074219 C20.46975586 301.53430751 20.46975586 301.53430751 17.93505859 305.81738281 C17.01713612 307.33230172 16.02059757 308.79876358 15.02050781 310.26074219 C14.36050781 310.26074219 13.70050781 310.26074219 13.02050781 310.26074219 C12.69050781 309.25011719 12.36050781 308.23949219 12.02050781 307.19824219 C9.97375246 302.30599768 6.11124729 299.45754335 2.02050781 296.26074219 C1.90835938 296.93492187 1.79621094 297.60910156 1.68066406 298.30371094 C0.8913028 301.8394889 -0.29449067 305.18017784 -1.54199219 308.57324219 C-1.77595703 309.21841797 -2.00992188 309.86359375 -2.25097656 310.52832031 C-2.82396226 312.10695438 -3.40128683 313.68401244 -3.97949219 315.26074219 C-4.96949219 315.26074219 -5.95949219 315.26074219 -6.97949219 315.26074219 C-7.25921875 314.44992187 -7.53894531 313.63910156 -7.82714844 312.80371094 C-12.08254607 299.81355644 -12.08254607 299.81355644 -20.97949219 290.26074219 C-22.95949219 294.22074219 -24.93949219 298.18074219 -26.97949219 302.26074219 C-27.96949219 302.26074219 -28.95949219 302.26074219 -29.97949219 302.26074219 C-30.19863281 301.62007813 -30.41777344 300.97941406 -30.64355469 300.31933594 C-30.96066406 299.454375 -31.27777344 298.58941406 -31.60449219 297.69824219 C-31.90613281 296.85132813 -32.20777344 296.00441406 -32.51855469 295.13183594 C-36.0947745 288.10370342 -41.25642342 284.07934917 -47.91699219 280.13574219 C-56.74375804 274.66493132 -64.34452278 268.26700007 -71.97949219 261.26074219 C-73.08618787 260.25284716 -74.19295646 259.24503218 -75.29980469 258.23730469 C-77.31343874 256.39835106 -79.31971088 254.5521834 -81.32324219 252.70214844 C-84.27829296 249.98610913 -87.26192479 247.31159883 -90.31152344 244.70214844 C-91.78136263 243.43195953 -93.1977609 242.10048627 -94.60449219 240.76074219 C-96.96207155 238.94907609 -96.96207155 238.94907609 -100.16699219 239.44824219 C-102.90112186 240.14597143 -102.90112186 240.14597143 -104.97949219 241.26074219 C-113.35969542 242.1586211 -119.79352726 238.92621491 -126.35449219 233.82324219 C-131.09472342 229.19587361 -133.67340762 225.20007707 -134.14355469 218.57324219 C-133.85896669 214.56190667 -132.3724059 211.45629467 -129.97949219 208.26074219 C-126.99577501 205.93198732 -125.76358364 205.26074219 -121.97949219 205.26074219 C-122.65044922 203.84148437 -122.65044922 203.84148437 -123.33496094 202.39355469 C-126.70331048 195.09530828 -129.63200399 187.8237388 -131.79199219 180.07324219 C-131.98623779 179.38697754 -132.1804834 178.70071289 -132.38061523 177.99365234 C-135.72430008 165.43244016 -136.35151861 153.04906272 -136.29199219 140.13574219 C-136.29016937 139.31681488 -136.28834656 138.49788757 -136.28646851 137.65414429 C-136.24137419 125.6301187 -135.84841854 113.9911523 -132.97949219 102.26074219 C-132.80788574 101.52484863 -132.6362793 100.78895508 -132.45947266 100.03076172 C-127.31216222 78.3881383 -118.33171668 59.30806765 -103.97949219 42.26074219 C-103.45097656 41.51179688 -102.92246094 40.76285156 -102.37792969 39.99121094 C-101.91644531 39.42015625 -101.45496094 38.84910156 -100.97949219 38.26074219 C-100.31949219 38.26074219 -99.65949219 38.26074219 -98.97949219 38.26074219 C-98.73714844 37.68710938 -98.49480469 37.11347656 -98.24511719 36.52246094 C-89.97413926 21.74191705 -66.53865171 11.99861971 -51.39746094 7.19824219 C-47.1794009 6.04128858 -42.94235347 5.05599548 -38.66699219 4.13574219 C-37.93335449 3.97702637 -37.1997168 3.81831055 -36.44384766 3.65478516 C-24.32265821 1.16992826 -12.36527172 -0.077769 0 0 Z M-86.97949219 34.26074219 C-87.6871875 34.83566406 -88.39488281 35.41058594 -89.12402344 36.00292969 C-110.05731455 53.26154051 -121.50518316 80.3254731 -126.97949219 106.26074219 C-127.25768799 107.50416382 -127.25768799 107.50416382 -127.54150391 108.77270508 C-129.3313196 117.82795906 -129.35173072 126.87166692 -129.35009766 136.06665039 C-129.35444574 138.79410491 -129.39080285 141.51990306 -129.42871094 144.24707031 C-129.56055231 164.88729727 -124.83756869 182.47814661 -115.89746094 201.01855469 C-114.97949219 203.26074219 -114.97949219 203.26074219 -114.97949219 206.26074219 C-114.31949219 206.26074219 -113.65949219 206.26074219 -112.97949219 206.26074219 C-112.97949219 207.25074219 -112.97949219 208.24074219 -112.97949219 209.26074219 C-113.96949219 209.26074219 -114.95949219 209.26074219 -115.97949219 209.26074219 C-115.97949219 209.92074219 -115.97949219 210.58074219 -115.97949219 211.26074219 C-114.98949219 211.92074219 -113.99949219 212.58074219 -112.97949219 213.26074219 C-113.54320633 216.53028421 -114.47911485 218.08650102 -116.97949219 220.26074219 C-115.86574219 220.52886719 -114.75199219 220.79699219 -113.60449219 221.07324219 C-109.97949219 222.26074219 -109.97949219 222.26074219 -107.97949219 225.26074219 C-107.59449328 226.9162375 -107.25156084 228.58298549 -106.97949219 230.26074219 C-106.28984375 230.18210937 -105.60019531 230.10347656 -104.88964844 230.02246094 C-101.5269934 229.93481972 -99.16646426 230.12576891 -95.97949219 231.26074219 C-93.62547688 233.9202404 -91.82175673 236.45096433 -90.06176758 239.51147461 C-87.7272664 243.53785553 -86.25324044 244.67787246 -81.97949219 246.26074219 C-79.71004293 248.16226332 -77.70464732 250.30348416 -75.66699219 252.44824219 C-74.50590766 253.63738085 -73.3431573 254.82489536 -72.17871094 256.01074219 C-71.6236084 256.57792969 -71.06850586 257.14511719 -70.49658203 257.72949219 C-61.1492142 267.16410613 -50.27110148 275.39990635 -38.53808594 281.59277344 C-33.69800512 284.74806277 -31.37131153 289.11833061 -28.97949219 294.26074219 C-28.31949219 294.26074219 -27.65949219 294.26074219 -26.97949219 294.26074219 C-25.59011141 292.29926345 -24.25345109 290.29907643 -22.97949219 288.26074219 C-17.25282957 289.07701481 -14.3141255 293.92241727 -10.97949219 298.26074219 C-9.14523769 301.18587225 -7.50266017 304.16314577 -5.97949219 307.26074219 C-5.31949219 307.26074219 -4.65949219 307.26074219 -3.97949219 307.26074219 C-3.3079387 304.99125116 -2.64209589 302.72034609 -1.97949219 300.44824219 C-1.60824219 299.18367188 -1.23699219 297.91910156 -0.85449219 296.61621094 C0.1466729 293.35486804 0.1466729 293.35486804 0.02050781 290.26074219 C0.68050781 290.26074219 1.34050781 290.26074219 2.02050781 290.26074219 C2.02050781 290.92074219 2.02050781 291.58074219 2.02050781 292.26074219 C4.12338241 294.27315417 4.12338241 294.27315417 6.77050781 296.32324219 C7.65222656 297.03609375 8.53394531 297.74894531 9.44238281 298.48339844 C11.77252449 300.08978399 13.26401532 300.84211599 16.02050781 301.26074219 C17.19242828 299.30554834 18.35790071 297.34648829 19.52050781 295.38574219 C20.17019531 294.29519531 20.81988281 293.20464844 21.48925781 292.08105469 C23.17955634 289.50266547 23.17955634 289.50266547 23.02050781 287.26074219 C23.68050781 287.26074219 24.34050781 287.26074219 25.02050781 287.26074219 C25.12363281 288.27136719 25.22675781 289.28199219 25.33300781 290.32324219 C26.05755548 294.47292427 27.24320048 297.47430482 29.02050781 301.26074219 C33.18068808 299.87401543 34.68916032 296.91531388 37.08300781 293.44824219 C37.52966797 292.81853516 37.97632813 292.18882812 38.43652344 291.54003906 C42.62246561 285.91390165 42.62246561 285.91390165 44.02050781 279.26074219 C44.68050781 279.26074219 45.34050781 279.26074219 46.02050781 279.26074219 C46.21386719 279.88722656 46.40722656 280.51371094 46.60644531 281.15917969 C46.86683594 281.97644531 47.12722656 282.79371094 47.39550781 283.63574219 C47.65074219 284.44785156 47.90597656 285.25996094 48.16894531 286.09667969 C48.91905064 288.42533403 48.91905064 288.42533403 51.02050781 290.26074219 C51.69597656 289.57367188 52.37144531 288.88660156 53.06738281 288.17871094 C54.40542969 286.82712891 54.40542969 286.82712891 55.77050781 285.44824219 C56.65222656 284.55492187 57.53394531 283.66160156 58.44238281 282.74121094 C64.13861805 277.26074219 64.13861805 277.26074219 67.02050781 277.26074219 C67.35050781 279.24074219 67.68050781 281.22074219 68.02050781 283.26074219 C71.94929856 279.45472615 75.51583288 275.41971562 79.05566406 271.24902344 C83.63804141 266.61198552 88.77559284 266.68528476 95.02441406 266.01855469 C98.12629975 265.52510913 98.12629975 265.52510913 99.92285156 263.19042969 C100.28507813 262.55363281 100.64730469 261.91683594 101.02050781 261.26074219 C101.35050781 262.25074219 101.68050781 263.24074219 102.02050781 264.26074219 C102.68050781 264.26074219 103.34050781 264.26074219 104.02050781 264.26074219 C105.06806526 263.11497623 106.05860498 261.91680659 107.02050781 260.69824219 C111.09461663 255.89721769 115.82382355 252.7411636 121.02050781 249.26074219 C128.8219725 243.75382593 135.50369979 237.30173341 140.98535156 229.44433594 C143.02050781 227.26074219 143.02050781 227.26074219 145.37988281 226.99121094 C147.59342448 227.41438802 149.80696615 227.8375651 152.02050781 228.26074219 C152.35050781 224.63074219 152.68050781 221.00074219 153.02050781 217.26074219 C157.31050781 216.27074219 161.60050781 215.28074219 166.02050781 214.26074219 C166.02050781 213.60074219 166.02050781 212.94074219 166.02050781 212.26074219 C161.90087012 210.96830683 158.35219098 209.99821593 154.02050781 210.26074219 C155.39034284 207.09958443 156.00957161 206.26803299 159.02050781 204.26074219 C157.53550781 202.77574219 157.53550781 202.77574219 156.02050781 201.26074219 C157.34050781 200.93074219 158.66050781 200.60074219 160.02050781 200.26074219 C160.04628906 199.473125 160.07207031 198.68550781 160.09863281 197.87402344 C160.40196536 192.04865973 160.98056369 186.84880615 162.89550781 181.32324219 C168.12015214 165.11540394 168.30470316 148.44529908 168.33300781 131.57324219 C168.33838562 130.26533218 168.33838562 130.26533218 168.34387207 128.93099976 C168.37304667 115.73368422 167.95473019 103.99957355 162.02050781 91.94824219 C161.62605469 91.13427979 161.23160156 90.32031738 160.82519531 89.48168945 C154.95143059 77.72377009 147.10267527 67.73573695 138.02050781 58.26074219 C137.27542969 57.4525 136.53035156 56.64425781 135.76269531 55.81152344 C109.96759789 28.69687483 72.17139368 15.05815443 36.02050781 9.26074219 C34.88532715 9.07527832 33.75014648 8.88981445 32.58056641 8.69873047 C22.57709686 7.20334584 12.74565436 6.85950277 2.64550781 6.88574219 C1.81657013 6.88661835 0.98763245 6.88749451 0.13357544 6.88839722 C-31.65957635 6.99868278 -62.48216072 12.80154131 -86.97949219 34.26074219 Z " fill="#C9C9C9" transform="translate(179.9794921875,42.7392578125)"/>
<path d="M0 0 C0.86818359 -0.00773438 1.73636719 -0.01546875 2.63085938 -0.0234375 C8.44977145 -0.00584442 14.09193301 0.17531829 19.03125 3.625 C23.59555364 8.4687508 27.3906779 13.70320492 31.0625 19.25 C32.92273628 19.17857707 32.92273628 19.17857707 35.0625 18.25 C37.31318245 15.66215668 37.31318245 15.66215668 39.4375 12.5 C46.87473716 2.14491324 46.87473716 2.14491324 52.19140625 0.65234375 C61.629907 -0.67033051 74.58517912 -1.66064319 83.0625 3.25 C87.49781282 7.44696657 88.78697826 11.80067978 89.265625 17.79296875 C89.42410801 26.73405184 88.0652843 35.27379122 82.0625 42.25 C76.63690292 47.54290584 70.38979058 48.00986885 63.1418457 48.26660156 C58.98973722 48.51719835 58.98973722 48.51719835 55.46630859 50.54736328 C52.19170337 54.35304908 50.96093381 57.57033252 50.88671875 62.48828125 C50.86287109 63.30876953 50.83902344 64.12925781 50.81445312 64.97460938 C50.77178237 66.68790468 50.74037084 68.40152063 50.72070312 70.11523438 C50.49908473 76.70709328 48.8154271 80.4970729 44.0625 85.25 C41.8203125 85.55078125 41.8203125 85.55078125 39.1875 85.5625 C38.32382813 85.57925781 37.46015625 85.59601563 36.5703125 85.61328125 C33.63153308 85.18757021 32.26416201 84.19053466 30.0625 82.25 C29.0415625 83.24 29.0415625 83.24 28 84.25 C24.29977467 86.76930235 22.4593344 86.9566341 18.0625 86.25 C14.3177879 83.33744614 12.52999371 80.70043053 11.0625 76.25 C10.74365234 73.38745117 10.74365234 73.38745117 10.6484375 70.29296875 C10.59042969 68.62524414 10.59042969 68.62524414 10.53125 66.92382812 C10.5003125 65.77333984 10.469375 64.62285156 10.4375 63.4375 C10.37949219 61.68276367 10.37949219 61.68276367 10.3203125 59.89257812 C10.2262487 57.01187436 10.14060123 54.13117346 10.0625 51.25 C8.928125 51.16363281 7.79375 51.07726562 6.625 50.98828125 C-2.73038915 50.16466677 -9.85864971 49.50438659 -16.6328125 42.49609375 C-23.11910093 34.74074889 -24.4904981 26.14069071 -24.22265625 16.2421875 C-23.72160237 10.98455366 -22.43797944 7.75047944 -18.625 3.9375 C-12.56486498 0.13229894 -6.94561323 -0.06160189 0 0 Z " fill="#ED0341" transform="translate(163.9375,216.75)"/>
<path d="M0 0 C0 0.66 0 1.32 0 2 C-0.66 2 -1.32 2 -2 2 C-2.0825 2.70125 -2.165 3.4025 -2.25 4.125 C-3.38810839 8.48774884 -5.69810762 11.60511531 -8.75 14.875 C-12.12473531 16.56236766 -15.35367266 16.67150187 -19 16 C-22 14.125 -22 14.125 -24 12 C-24 11.34 -24 10.68 -24 10 C-25.32 9.67 -26.64 9.34 -28 9 C-27.2628641 7.70094902 -26.50969444 6.41098878 -25.75 5.125 C-25.33234375 4.40570313 -24.9146875 3.68640625 -24.484375 2.9453125 C-19.17126915 -4.01765254 -7.58631081 -1.14510352 0 0 Z " fill="#322B2D" transform="translate(238,240)"/>
<path d="M0 0 C2.4715554 2.84228871 4.04969073 5.41037229 5.5 8.875 C4.3553125 9.2771875 4.3553125 9.2771875 3.1875 9.6875 C0.51958623 10.65512527 0.51958623 10.65512527 -0.90234375 12.3828125 C-3.40975463 14.72469748 -5.81104479 14.85938138 -9.14453125 15.13671875 C-13.40337862 14.66351349 -15.87953396 12.09847101 -18.5 8.875 C-20.12351077 5.83974074 -20.5 4.31301737 -20.5 0.875 C-21.16 0.875 -21.82 0.875 -22.5 0.875 C-22.5 0.215 -22.5 -0.445 -22.5 -1.125 C-4.87693651 -3.78508505 -4.87693651 -3.78508505 0 0 Z " fill="#302C2D" transform="translate(179.5,243.125)"/>
<path d="M0 0 C0.33 0 0.66 0 1 0 C1.33 1.65 1.66 3.3 2 5 C2.66 4.01 3.32 3.02 4 2 C4.99 2.33 5.98 2.66 7 3 C5.35 4.65 3.7 6.3 2 8 C1.34 7.67 0.68 7.34 0 7 C0 4.69 0 2.38 0 0 Z " fill="#B7B7B7" transform="translate(247,320)"/>
<path d="M0 0 C0.66 0 1.32 0 2 0 C2.33 1.32 2.66 2.64 3 4 C2.01 4 1.02 4 0 4 C0.20625 4.61875 0.4125 5.2375 0.625 5.875 C0.74875 6.57625 0.8725 7.2775 1 8 C0.34 8.66 -0.32 9.32 -1 10 C-2.15837626 5.94568308 -1.83691257 3.78187881 0 0 Z " fill="#B8B8B8" transform="translate(224,322)"/>
<path d="M0 0 C2.31 0.33 4.62 0.66 7 1 C7 1.66 7 2.32 7 3 C4.36 3.33 1.72 3.66 -1 4 C-0.67 2.68 -0.34 1.36 0 0 Z " fill="#4F4F4F" transform="translate(339,254)"/>
<path d="M0 0 C1.32 0.66 2.64 1.32 4 2 C3.34 3.32 2.68 4.64 2 6 C1.01 6 0.02 6 -1 6 C-0.67 4.02 -0.34 2.04 0 0 Z " fill="#AAAAAA" transform="translate(178,340)"/>
</svg>
