<?xml version="1.0" standalone="no"?>
<!DOCTYPE svg PUBLIC "-//W3C//DTD SVG 20010904//EN"
 "http://www.w3.org/TR/2001/REC-SVG-20010904/DTD/svg10.dtd">
<svg version="1.0" xmlns="http://www.w3.org/2000/svg"
 width="1080.000000pt" height="1080.000000pt" viewBox="0 0 1080.000000 1080.000000"
 preserveAspectRatio="xMidYMid meet">

<g transform="translate(0.000000,1080.000000) scale(0.100000,-0.100000)"
fill="#000000" stroke="none">
<path d="M955 10663 c-56 -8 -180 -45 -244 -74 -206 -93 -407 -293 -495 -493
-14 -32 -38 -95 -53 -139 l-28 -82 -3 -4430 c-2 -3371 0 -4447 9 -4500 16 -96
70 -243 119 -326 141 -238 343 -393 605 -465 69 -19 163 -19 4540 -19 l4470 0
80 23 c362 106 641 418 704 787 9 54 11 1099 9 4495 -3 4205 -4 4428 -21 4484
-56 185 -128 313 -249 441 -125 133 -278 226 -454 277 l-79 23 -4440 1 c-2442
1 -4453 -1 -4470 -3z m3361 -2694 c293 -43 542 -160 854 -400 63 -49 132 -104
154 -122 l38 -34 -12 -299 c-6 -164 -12 -299 -13 -300 -1 -1 -93 -8 -203 -15
l-202 -13 -108 101 c-142 132 -230 204 -331 270 -165 108 -387 196 -528 210
-52 5 -68 2 -126 -24 -342 -155 -599 -529 -699 -1018 -128 -620 5 -1283 336
-1672 146 -173 359 -315 533 -355 155 -35 515 117 783 330 89 71 70 68 347 55
l144 -6 -7 -226 c-3 -124 -9 -265 -12 -312 l-6 -86 -107 -70 c-263 -176 -530
-266 -826 -280 -87 -4 -209 2 -440 21 -282 24 -336 31 -454 62 -662 174 -1155
874 -1255 1782 -40 355 5 777 120 1142 202 637 634 1084 1153 1191 146 30 441
70 581 78 69 4 130 9 136 9 6 1 74 -7 150 -19z m2604 -604 c238 -36 418 -138
682 -384 l77 -72 -5 -132 c-3 -73 -7 -182 -10 -243 l-6 -111 -191 -9 -192 -9
-120 115 c-136 130 -248 209 -386 274 -136 64 -147 65 -218 22 -195 -119 -363
-387 -445 -714 -50 -197 -60 -290 -60 -552 0 -209 3 -263 23 -370 80 -449 272
-765 550 -905 51 -26 58 -27 105 -15 28 6 89 28 136 48 l85 37 7 70 c7 70 27
617 23 623 -2 2 -349 31 -387 32 -7 0 0 413 8 438 2 9 53 12 209 12 197 0 299
-8 763 -61 l104 -12 -6 -136 c-3 -75 -11 -280 -16 -456 -6 -176 -15 -434 -19
-574 l-9 -255 -33 -27 c-101 -83 -318 -190 -464 -229 -140 -37 -383 -37 -760
1 -186 19 -317 69 -470 179 -273 198 -490 589 -576 1040 -63 330 -66 741 -8
1069 116 650 444 1125 865 1250 40 12 142 27 240 37 93 8 207 19 254 23 129
12 147 12 250 -4z m310 -4626 c36 -10 85 -32 109 -48 124 -83 146 -152 146
-461 -1 -197 -9 -285 -41 -435 -28 -131 -34 -160 -38 -185 -2 -14 -6 -32 -9
-40 -3 -8 -8 -27 -11 -42 -4 -16 -13 -28 -21 -28 -10 0 -15 -10 -15 -29 0 -15
-9 -40 -20 -54 -12 -15 -28 -50 -36 -79 -18 -61 -27 -74 -63 -91 -14 -7 -26
-19 -26 -27 0 -18 -20 -28 -57 -29 -19 -1 -28 -6 -28 -17 0 -12 -7 -14 -30 -9
-26 6 -30 4 -30 -14 0 -11 -4 -23 -10 -26 -5 -3 -10 2 -10 13 0 12 -7 18 -21
18 -15 -1 -24 8 -33 34 -7 20 -18 34 -25 32 -8 -2 -11 3 -8 13 4 8 1 15 -6 15
-11 0 -35 54 -40 90 -1 8 -6 18 -12 22 -5 4 -11 20 -12 35 -2 32 -29 144 -45
188 -6 17 -12 57 -13 90 -2 33 -8 96 -14 140 -7 44 -13 98 -15 120 -2 22 -7
56 -10 75 -3 19 -8 51 -10 70 -8 64 -19 105 -35 129 -9 14 -15 32 -13 41 1 9
-9 27 -23 40 -14 13 -25 29 -25 36 0 24 -34 34 -63 19 -14 -7 -39 -16 -55 -20
-17 -3 -33 -13 -36 -22 -4 -9 -13 -13 -21 -9 -9 3 -18 -1 -21 -9 -4 -8 -14
-15 -24 -15 -9 0 -25 -9 -34 -19 -10 -11 -28 -21 -40 -23 -12 -2 -27 -16 -36
-35 -8 -18 -21 -33 -29 -33 -8 0 -29 -12 -48 -26 -25 -19 -32 -31 -28 -45 6
-18 1 -27 -37 -69 -9 -10 -14 -21 -11 -24 3 -3 -4 -13 -16 -23 -12 -10 -23
-30 -25 -45 -1 -15 -8 -34 -15 -42 -7 -9 -11 -23 -7 -31 3 -9 0 -15 -7 -15
-14 0 -47 -66 -47 -92 0 -9 -7 -18 -15 -22 -8 -3 -15 -18 -15 -33 0 -15 -7
-37 -15 -47 -8 -11 -15 -30 -15 -42 0 -13 -5 -26 -10 -29 -6 -4 -10 -14 -9
-23 2 -16 -1 -28 -21 -77 -4 -11 -15 -38 -23 -60 -9 -22 -19 -60 -23 -85 -3
-25 -12 -52 -20 -60 -7 -9 -13 -24 -12 -35 4 -50 -18 -116 -51 -157 -7 -10
-11 -29 -9 -43 3 -14 -1 -30 -8 -36 -8 -6 -14 -21 -14 -33 0 -12 -11 -37 -25
-56 -14 -19 -25 -39 -25 -45 0 -6 -9 -18 -21 -28 -13 -12 -18 -24 -14 -37 5
-16 2 -20 -14 -20 -15 0 -21 -6 -21 -21 0 -18 -2 -19 -15 -9 -13 11 -18 10
-28 -5 -19 -24 -53 -16 -49 13 2 12 -2 30 -8 39 -8 15 -9 12 -4 -12 5 -27 4
-28 -9 -12 -8 9 -20 17 -26 17 -7 0 -9 5 -6 10 11 17 -5 51 -23 48 -11 -2 -18
8 -24 37 -5 21 -6 45 -3 53 2 7 -7 23 -21 35 -21 19 -24 26 -16 48 6 14 7 31
3 38 -4 6 -8 41 -9 78 -1 37 -7 70 -12 73 -13 8 -19 135 -9 172 5 17 2 33 -7
46 -9 13 -11 23 -4 27 5 3 10 19 10 36 0 16 4 29 9 29 10 0 24 114 22 179 -1
25 5 51 12 60 13 14 20 36 31 91 1 8 6 22 10 31 4 9 6 20 4 25 -3 12 39 122
62 159 10 17 23 49 30 73 6 24 18 46 26 49 7 3 14 11 14 17 0 7 16 27 35 46
19 19 35 40 35 47 0 7 7 21 15 31 82 92 131 142 142 142 7 0 25 14 40 30 14
17 32 30 39 30 6 0 14 7 18 15 3 8 16 15 29 15 14 0 30 7 37 15 16 20 128 75
152 75 11 0 29 5 40 11 11 6 31 12 44 14 14 1 33 10 44 20 11 10 26 15 34 12
9 -4 18 -2 21 3 4 6 23 7 44 4 24 -4 41 -2 45 5 4 6 18 11 32 11 14 0 23 -3
21 -7 -3 -5 41 -8 98 -8 57 0 102 2 100 5 -1 3 31 6 73 8 42 2 88 10 103 17
15 8 43 14 63 13 20 -1 38 1 41 4 11 11 164 -5 225 -23z m-525 -478 c10 -17
-12 -21 -25 -6 -10 12 -10 15 3 15 9 0 18 -4 22 -9z m-3245 -96 c0 -2 -7 -5
-15 -9 -9 -3 -15 0 -15 9 0 9 6 12 15 9 8 -4 15 -7 15 -9z m-100 -105 c0 -5
-5 -10 -11 -10 -5 0 -7 5 -4 10 3 6 8 10 11 10 2 0 4 -4 4 -10z m-130 -48 c0
-14 -2 -15 -10 -2 -5 8 -12 12 -15 8 -10 -10 15 -42 43 -56 14 -6 28 -8 31 -3
3 4 17 12 31 16 l25 8 -20 -22 c-15 -17 -16 -24 -6 -30 15 -10 -16 -20 -64
-22 -16 0 -24 -3 -17 -6 20 -8 14 -22 -8 -16 -11 3 -20 11 -20 18 0 8 -9 17
-20 20 -23 7 -24 18 -9 66 6 19 13 40 15 47 6 19 44 -4 44 -26z m92 6 c-12
-12 -35 -1 -27 12 3 5 13 6 21 3 10 -4 12 -9 6 -15z m-232 -58 c0 -5 -7 -10
-16 -10 -8 0 -12 5 -9 10 3 6 10 10 16 10 5 0 9 -4 9 -10z m75 -50 c9 -10 15
-26 11 -35 -3 -9 -1 -24 6 -34 7 -11 8 -29 3 -47 -5 -16 -8 -32 -7 -36 1 -3
-14 -23 -32 -43 -27 -30 -35 -33 -40 -20 -7 18 -33 15 -28 -4 1 -6 -10 -11
-24 -11 -21 0 -24 -3 -16 -13 6 -7 9 -23 5 -35 -5 -22 -27 -30 -38 -13 -5 8
-65 13 -65 5 0 -1 3 -10 6 -19 6 -13 9 -14 16 -3 7 9 8 6 5 -11 -6 -25 9 -68
27 -74 6 -2 1 -2 -12 0 l-23 4 20 -23 c30 -31 26 -39 -10 -21 -17 9 -28 21
-25 28 5 13 -41 31 -52 20 -3 -3 2 -5 11 -5 10 0 17 -4 17 -10 0 -12 -3 -12
-24 -4 -9 3 -16 12 -16 20 0 8 -5 14 -10 14 -6 0 -10 -6 -9 -12 3 -24 -1 -38
-10 -38 -16 0 -17 33 -3 62 17 36 27 41 42 23 15 -18 36 -20 45 -4 8 12 -23
49 -41 49 -7 0 -15 -6 -17 -12 -3 -7 -6 -3 -6 9 -1 16 3 21 14 17 8 -4 15 -2
15 2 0 8 18 11 73 14 30 2 18 20 -14 20 -24 0 -29 4 -25 18 2 9 7 27 11 38 3
12 13 21 22 20 12 -1 17 7 17 29 1 26 5 30 29 30 23 -1 27 3 27 26 0 19 6 30
19 34 11 3 23 16 27 28 13 41 50 49 79 17z m50 -89 c3 -5 1 -12 -5 -16 -5 -3
-10 1 -10 9 0 18 6 21 15 7z m-305 -351 c0 -5 -4 -10 -10 -10 -5 0 -10 5 -10
10 0 6 5 10 10 10 6 0 10 -4 10 -10z m-60 -20 c9 -6 17 -5 22 3 4 7 8 -2 8
-21 0 -41 -30 -75 -61 -70 -25 3 -39 28 -15 28 8 0 20 9 26 19 13 26 13 31 -5
31 -8 0 -15 5 -15 10 0 12 20 13 40 0z m70 -62 c0 -16 -3 -19 -11 -11 -6 6 -8
16 -5 22 11 17 16 13 16 -11z m-60 -138 c0 -5 -4 -10 -10 -10 -5 0 -10 5 -10
10 0 6 5 10 10 10 6 0 10 -4 10 -10z"/>
<path d="M3218 1923 c7 -3 16 -2 19 1 4 3 -2 6 -13 5 -11 0 -14 -3 -6 -6z"/>
<path d="M3065 1750 c-3 -5 -1 -10 4 -10 6 0 11 5 11 10 0 6 -2 10 -4 10 -3 0
-8 -4 -11 -10z"/>
</g>
</svg>
