<?xml version="1.0" encoding="UTF-8"?>
<svg version="1.1" xmlns="http://www.w3.org/2000/svg" width="4000" height="5000">
<path d="M0 0 C1320 0 2640 0 4000 0 C4000 1650 4000 3300 4000 5000 C2680 5000 1360 5000 0 5000 C0 3350 0 1700 0 0 Z " fill="#161616" transform="translate(0,0)"/>
<path d="M0 0 C23.51633378 -1.12266842 46.35714976 2.10287199 69.55836105 5.56708145 C71.31667788 5.82958695 73.07521192 6.09064205 74.83397293 6.35015488 C104.17812642 10.68098765 132.67561394 16.60472066 160.78515625 26.27734375 C161.89383057 26.65344284 161.89383057 26.65344284 163.02490234 27.03713989 C187.56234872 35.36248425 211.25715245 45.20114112 234.59765625 56.46484375 C235.58491699 56.93921875 236.57217773 57.41359375 237.58935547 57.90234375 C269.32134006 73.22160804 299.68784584 91.63807805 328.89404297 111.32275391 C330.44610557 112.36324528 332.00772336 113.38944755 333.5703125 114.4140625 C341.26563406 119.46312492 348.71093745 124.82983014 356.15234375 130.2421875 C358.83229373 132.19067013 361.5201466 134.12524735 364.23046875 136.03125 C371.57858117 141.20026701 378.70850628 146.60112708 385.77636719 152.14770508 C390.74374987 156.04212888 395.77101677 159.83945545 400.84765625 163.58984375 C406.61988443 167.86914414 412.113043 172.38106586 417.52270508 177.1081543 C421.25674511 180.35863428 425.07956586 183.42660064 429.03515625 186.40234375 C435.85794383 191.55169594 442.25602912 197.14828133 448.67626953 202.78613281 C452.52185919 206.14601522 456.41163495 209.45456642 460.29467773 212.77099609 C464.49958612 216.36677362 464.49958612 216.36677362 465.59765625 217.46484375 C466.29808154 227.92112138 465.28867123 238.65517589 464.85742188 249.10969162 C464.6226453 254.80502396 464.39609594 260.50068721 464.16796875 266.19628906 C464.12045471 267.37667189 464.07294067 268.55705471 464.02398682 269.77320671 C463.52569896 282.17738342 463.05937446 294.58269775 462.59765625 306.98828125 C462.51449802 309.21722458 462.43132739 311.44616745 462.34814453 313.67510986 C462.13925923 319.27625102 461.93088633 324.87741112 461.72265625 330.47857666 C461.51461003 336.07296806 461.30612263 341.667343 461.09765625 347.26171875 C461.03571327 348.9251853 461.03571327 348.9251853 460.97251892 350.62225723 C460.76570535 356.17461148 460.55834276 361.72694425 460.34985352 367.27923584 C459.9573787 377.74228186 459.56944029 388.20543294 459.19711304 398.66921806 C459.02136768 403.59530984 458.84254285 408.52128747 458.66333008 413.44725418 C458.5785232 415.80053152 458.49516734 418.15386163 458.41333008 420.50724411 C458.30006637 423.76099593 458.18182991 427.01453224 458.0625 430.26806641 C458.0302684 431.23118366 457.9980368 432.19430092 457.96482849 433.18660355 C457.93123734 434.07640285 457.89764618 434.96620216 457.86303711 435.88296509 C457.83576035 436.65165735 457.80848358 437.42034962 457.78038025 438.21233559 C457.57969215 440.68629402 457.12682426 443.04169446 456.59765625 445.46484375 C438.65536605 446.77660134 420.7125452 448.08083688 402.76907539 449.37635803 C394.43579775 449.97819415 386.10270517 450.58240035 377.77001953 451.19238281 C370.49898262 451.72464252 363.22762519 452.25225513 355.95586288 452.7745142 C352.11306661 453.05066153 348.27045812 453.32898054 344.42822647 453.61288452 C316.87108761 455.64584542 316.87108761 455.64584542 305.86669922 455.8203125 C305.171019 455.84140579 304.47533878 455.86249908 303.75857735 455.88423157 C299.38988424 455.88265617 297.09457931 454.9356461 293.91015625 451.96484375 C292.7757998 450.48754233 291.6773736 448.98253755 290.59765625 447.46484375 C285.33424503 441.07570555 279.52170632 435.23751025 273.66015625 429.40234375 C272.80486328 428.54318359 271.94957031 427.68402344 271.06835938 426.79882812 C266.64163049 422.37885245 262.14474981 418.12498511 257.40014648 414.04907227 C254.66787833 411.6476517 252.13578629 409.06804299 249.59765625 406.46484375 C245.80167516 402.62213744 241.96096866 398.93060732 237.84375 395.4296875 C235.3804777 393.27485974 232.99800023 391.0466022 230.61279297 388.80615234 C225.04649455 383.57891779 219.40812583 378.55461982 213.4453125 373.77734375 C209.52361679 370.59264709 205.70721693 367.29029114 201.89453125 363.97631836 C175.90824349 341.51222192 147.35970354 321.08191939 117.71630859 303.71777344 C115.33810257 302.31134877 112.97770655 300.87731039 110.6171875 299.44140625 C97.28366739 291.37682601 83.63640438 284.21987897 69.59765625 277.46484375 C68.88029297 277.11728027 68.16292969 276.7697168 67.42382812 276.41162109 C51.56695179 268.75119774 35.37492766 261.75259131 18.67041016 256.16210938 C16.58233342 255.45968921 14.50193821 254.73749098 12.421875 254.01171875 C-13.13824372 245.17767042 -40.37968165 236.8650049 -67.4453125 234.80859375 C-71.40234375 234.46484375 -71.40234375 234.46484375 -74.953125 233.74609375 C-87.39652107 231.64220476 -97.23423086 237.64913149 -108.18017578 242.94824219 C-111.25347098 244.39477271 -114.34752385 245.72110018 -117.4921875 247.00390625 C-129.30115159 251.822574 -139.58297132 257.40895077 -149.97412109 264.77734375 C-154.64204798 268.02133235 -159.44066191 271.06799127 -164.21484375 274.15234375 C-179.88186906 283.74849988 -179.88186906 283.74849988 -193.6875 295.68554688 C-195.41392746 297.47686284 -197.21310251 299.08835126 -199.1015625 300.70703125 C-203.30553331 304.35390732 -207.36246853 308.13800882 -211.40234375 311.96484375 C-217.61648607 317.85128716 -223.8760502 323.66453144 -230.578125 328.99609375 C-233.71831325 331.74104392 -236.09805389 334.64369766 -238.58984375 337.96484375 C-242.31242908 342.8169836 -246.1133021 347.56826212 -250.08984375 352.21484375 C-253.87810223 356.65108513 -257.59124424 361.13108673 -261.1953125 365.71875 C-262.87327721 367.80655388 -264.57826065 369.84123468 -266.328125 371.8671875 C-274.88551464 381.89338282 -281.45334986 392.59178641 -287.97998047 404.01904297 C-289.79355366 407.13754216 -291.72848807 410.14077223 -293.71484375 413.15234375 C-295.28517808 415.58521573 -296.8482409 418.0216469 -298.40234375 420.46484375 C-298.95728516 421.3347998 -299.51222656 422.20475586 -300.08398438 423.10107422 C-311.04519475 440.45823693 -319.63957165 458.35292438 -327.69413757 477.21162415 C-330.76427748 484.37497317 -334.07204956 491.41964898 -337.40234375 498.46484375 C-341.95896569 508.1918479 -346.09548281 517.80729566 -349.11816406 528.1262207 C-350.41264411 532.5317485 -351.78120254 536.91182798 -353.16796875 541.2890625 C-353.42754364 542.11032623 -353.68711853 542.93158997 -353.95455933 543.77774048 C-355.51855219 548.71390734 -357.10552969 553.64205043 -358.7122345 558.56446838 C-366.4932708 581.96289673 -366.4932708 581.96289673 -371.65625 606.03515625 C-372.16926465 609.37922369 -372.91916199 612.59759109 -373.7734375 615.87109375 C-375.89054916 624.11394116 -377.3613685 632.47454955 -378.90234375 640.83984375 C-379.49365159 644.03561439 -380.08783897 647.23083687 -380.68359375 650.42578125 C-380.89999008 651.59497101 -380.89999008 651.59497101 -381.12075806 652.78778076 C-381.9846954 657.4080867 -382.96360933 661.98528934 -384.01953125 666.56640625 C-385.74555333 674.47562164 -386.39067574 682.41063173 -387.02734375 690.46484375 C-387.20839709 692.66314115 -387.39204135 694.86119192 -387.57797241 697.05908203 C-387.74372303 699.03118371 -387.90260432 701.00385929 -388.06103516 702.9765625 C-388.27120334 705.12454749 -388.53825258 707.2689152 -388.89794922 709.39697266 C-389.52405231 713.20510982 -389.82852025 717.01865364 -390.12109375 720.86328125 C-390.18389526 721.65707184 -390.24669678 722.45086243 -390.31140137 723.26870728 C-390.51084159 725.79223346 -390.70690307 728.3160049 -390.90234375 730.83984375 C-391.09805286 733.35651789 -391.29456713 735.87311853 -391.49328613 738.38955688 C-391.61644058 739.94994111 -391.73789172 741.51046109 -391.8572998 743.07113647 C-391.91405884 743.7919339 -391.97081787 744.51273132 -392.02929688 745.25537109 C-392.10138367 746.18752945 -392.10138367 746.18752945 -392.17492676 747.13851929 C-392.37100066 749.14422479 -392.63449458 751.14313024 -392.91062927 753.13938904 C-393.48920609 757.72283477 -393.59372706 762.26596261 -393.64282227 766.8815918 C-393.65562886 767.79444946 -393.66843546 768.70730713 -393.68163013 769.64782715 C-393.72123737 772.67403646 -393.75242898 775.70023193 -393.78125 778.7265625 C-393.79170979 779.78160288 -393.80216957 780.83664326 -393.81294632 781.92365456 C-393.88874384 789.99980016 -393.93343979 798.0759132 -393.96484375 806.15234375 C-393.96986027 807.3369519 -393.97487679 808.52156006 -393.98004532 809.74206543 C-394.10093514 842.50789691 -393.28286048 874.89299082 -389.58984375 907.46484375 C-389.50035084 908.25877407 -389.41085793 909.05270439 -389.31865311 909.87069321 C-386.95098532 930.73217817 -384.09890352 951.45991906 -379.52734375 971.96484375 C-377.48566712 981.2975858 -375.55545512 990.64078007 -373.77734375 1000.02734375 C-371.57678702 1011.59952575 -371.57678702 1011.59952575 -369.27734375 1023.15234375 C-369.05763916 1024.27394897 -369.05763916 1024.27394897 -368.83349609 1025.41821289 C-367.86938274 1030.0763067 -366.31853371 1034.09032227 -364.40234375 1038.46484375 C-363.15913285 1042.04476848 -362.03489118 1045.66110904 -360.90234375 1049.27734375 C-360.20114893 1051.49238643 -359.4992872 1053.70721806 -358.796875 1055.921875 C-358.41740723 1057.12021973 -358.03793945 1058.31856445 -357.64697266 1059.55322266 C-355.56391285 1066.11330027 -353.44053686 1072.66044928 -351.3203125 1079.20858765 C-350.60356134 1081.42247315 -349.88766082 1083.63663231 -349.171875 1085.85083008 C-348.29586814 1088.55989801 -347.41706035 1091.26802912 -346.53564453 1093.9753418 C-345.871096 1096.0215271 -345.21109143 1098.06921663 -344.56201172 1100.12036133 C-342.79071953 1105.64195231 -340.56122591 1110.88030926 -338.15234375 1116.15234375 C-337.79527344 1116.94833984 -337.43820312 1117.74433594 -337.0703125 1118.56445312 C-334.84416372 1123.47826934 -332.48327064 1128.30611187 -330.04296875 1133.1171875 C-327.52928209 1138.08495996 -325.18764048 1143.10265869 -322.96484375 1148.20703125 C-315.84881364 1164.5095324 -308.16119305 1179.69742057 -298.30371094 1194.56591797 C-294.94918786 1199.68040269 -291.7514375 1204.89259166 -288.52734375 1210.08984375 C-287.27578986 1212.0891995 -286.02322611 1214.08792354 -284.76953125 1216.0859375 C-282.78075768 1219.25682217 -280.80374287 1222.43386598 -278.84765625 1225.625 C-274.07567264 1233.33891461 -268.67400817 1240.15530839 -262.71044922 1246.95507812 C-260.74152744 1249.22753282 -258.85509061 1251.56431689 -256.96484375 1253.90234375 C-253.49161733 1258.17229594 -249.93429768 1262.35977162 -246.33984375 1266.52734375 C-241.09289854 1272.61270984 -236.00754702 1278.81124309 -231.0859375 1285.1640625 C-228.25778439 1288.72025503 -225.08148605 1291.61145117 -221.640625 1294.546875 C-219.19028962 1296.64655157 -216.79516802 1298.79990751 -214.40234375 1300.96484375 C-211.4655591 1303.61598369 -208.51631833 1306.24774546 -205.52734375 1308.83984375 C-201.41604162 1312.41195872 -197.42108921 1316.10788754 -193.43798828 1319.82177734 C-190.63971357 1322.44681223 -190.63971357 1322.44681223 -187.40234375 1324.46484375 C-187.40234375 1325.12484375 -187.40234375 1325.78484375 -187.40234375 1326.46484375 C-186.52835938 1326.86703125 -186.52835938 1326.86703125 -185.63671875 1327.27734375 C-183.37020444 1328.48192478 -181.62277081 1329.82544843 -179.65234375 1331.46484375 C-175.19736381 1334.97742409 -170.50669541 1337.97051774 -165.67480469 1340.92333984 C-160.8798686 1343.87282084 -156.16432004 1346.92833057 -151.48046875 1350.05078125 C-133.09721152 1362.40659762 -133.09721152 1362.40659762 -113.40234375 1372.46484375 C-112.51853027 1372.85430176 -111.6347168 1373.24375977 -110.72412109 1373.64501953 C-105.75212913 1375.83448264 -100.76999577 1377.99871436 -95.77734375 1380.140625 C-91.55697808 1381.95552878 -87.37637818 1383.83162633 -83.21484375 1385.77734375 C-73.06256082 1390.4992734 -63.01578217 1394.4120747 -52.17407227 1397.26000977 C-50.20234444 1397.78064419 -48.23714185 1398.32218523 -46.27148438 1398.86523438 C-34.74811147 1401.93462594 -26.0677379 1401.66220692 -14.40234375 1399.71484375 C-12.74803345 1399.44305298 -12.74803345 1399.44305298 -11.06030273 1399.16577148 C-2.06351129 1397.65023937 6.77835682 1395.79242928 15.59765625 1393.46484375 C16.25588379 1393.29404297 16.91411133 1393.12324219 17.59228516 1392.94726562 C22.9548537 1391.54552357 28.27923472 1390.02503969 33.59765625 1388.46484375 C34.66064941 1388.15417969 35.72364258 1387.84351562 36.81884766 1387.5234375 C53.20354585 1382.6945532 69.11147722 1377.19884461 84.86767578 1370.60205078 C87.38293721 1369.55428761 89.90653296 1368.53255037 92.4375 1367.5234375 C101.40117015 1363.93659178 110.0074721 1359.88512909 118.59765625 1355.46484375 C120.39665227 1354.57128956 122.19570446 1353.67784195 123.99658203 1352.78808594 C127.53969211 1351.03235239 131.06825659 1349.24793324 134.59765625 1347.46484375 C135.52545898 1346.99804199 136.45326172 1346.53124023 137.40917969 1346.05029297 C151.45395547 1338.95988065 165.01379628 1331.41816446 178.26953125 1322.94335938 C180.4180693 1321.57889352 182.58022553 1320.24189977 184.75390625 1318.91796875 C212.33073314 1302.08708964 238.84771828 1282.3505146 263.3125 1261.2578125 C263.81383453 1260.84311203 264.31516907 1260.42841156 264.83169556 1260.00114441 C266.20324549 1258.80796209 267.51055606 1257.540771 268.78817749 1256.24751282 C275.21381712 1250.18991348 279.73593549 1248.4473361 288.52192688 1248.57177734 C289.96777959 1248.6395213 291.41359439 1248.70807807 292.859375 1248.77734375 C294.44364454 1248.81850648 296.02802353 1248.85560865 297.61247253 1248.88916016 C301.21785676 1248.97568967 304.8205402 1249.0942949 308.42425537 1249.23388672 C315.26539713 1249.49776715 322.10813829 1249.68486121 328.95166016 1249.875 C343.02111438 1250.27723218 357.08739553 1250.75302495 371.15388763 1251.24636364 C378.20151835 1251.49333818 385.24939914 1251.73280958 392.29730189 1251.97187424 C406.73102896 1252.46162293 421.16444554 1252.96010752 435.59765625 1253.46484375 C435.70974501 1284.39497013 435.70974501 1284.39497013 435.046875 1298.234375 C434.98724133 1299.58703469 434.92824645 1300.93972266 434.86981201 1302.29243469 C434.74560439 1305.14476553 434.61787849 1307.99690416 434.48703003 1310.84893799 C434.16572956 1317.8626919 433.86569502 1324.87738092 433.56323433 1331.89196777 C433.45651733 1334.36346445 433.3491107 1336.83493057 433.24168396 1339.30639648 C432.54017016 1355.50855935 431.92162545 1371.71357442 431.32199478 1387.91978931 C431.13301639 1393.01365025 430.93776972 1398.10721983 430.73685074 1403.20062351 C430.13175853 1418.55100597 429.5590448 1433.89249179 429.3461895 1449.25396347 C429.28006747 1453.65936303 429.18265142 1458.06424186 429.09133911 1462.46917725 C429.03687345 1465.85800083 429.03488046 1469.24411603 429.03491211 1472.63330078 C428.85029593 1486.65669082 428.85029593 1486.65669082 425.55688477 1491.41064453 C423.00576838 1493.50237943 420.5330222 1494.9744279 417.59765625 1496.46484375 C416.25677371 1497.43618178 414.93341437 1498.43238579 413.6328125 1499.45703125 C389.32225001 1517.21973687 363.97135604 1533.87190199 337.57666016 1548.37011719 C335.52678529 1549.50404747 333.48921924 1550.65793067 331.453125 1551.81640625 C294.10474905 1572.99590105 252.70904074 1591.84183598 210.82861328 1601.89794922 C207.68709516 1602.69622073 204.59653363 1603.64431428 201.49462891 1604.58300781 C170.29326817 1613.94643649 137.60894604 1619.20403698 105.28515625 1622.71484375 C104.14185852 1622.83960587 104.14185852 1622.83960587 102.97546387 1622.96688843 C84.42683322 1624.96536449 66.082877 1625.62920177 47.42797852 1625.59521484 C43.8783757 1625.58979523 40.32889616 1625.59522262 36.77929688 1625.6015625 C34.50651014 1625.60090263 32.23372348 1625.59962338 29.9609375 1625.59765625 C28.38122917 1625.6006926 28.38122917 1625.6006926 26.76960754 1625.60379028 C21.91921129 1625.58828012 17.37223508 1625.41536615 12.59765625 1624.46484375 C11.22732751 1624.35349475 9.85439391 1624.26904033 8.48046875 1624.21875 C-0.28225805 1623.87570981 -9.01351253 1623.37939916 -17.75 1622.6171875 C-28.27866848 1621.72000641 -38.81024657 1620.8653372 -49.34375 1620.02734375 C-50.94934269 1619.89939175 -52.5549335 1619.77141611 -54.16052246 1619.64341736 C-60.75433071 1619.11792057 -67.34820567 1618.59326495 -73.94213867 1618.06933594 C-92.43480483 1616.59959683 -110.92489408 1615.11709851 -129.40234375 1613.46484375 C-131.14005242 1613.31018852 -132.87776402 1613.15556631 -134.61547852 1613.00097656 C-136.35693468 1612.84571526 -138.09838976 1612.69044184 -139.83984375 1612.53515625 C-141.11997345 1612.42130836 -141.11997345 1612.42130836 -142.42596436 1612.30516052 C-147.03443379 1611.89437465 -151.64199161 1611.47539882 -156.2487793 1611.04614258 C-166.09477573 1610.13858969 -175.92158739 1609.34827298 -185.796875 1608.84375 C-214.27893993 1607.27171978 -240.38681111 1601.26169587 -267.72689819 1593.24336243 C-274.38559296 1591.29738512 -281.0510608 1589.50980135 -287.8046875 1587.92578125 C-308.66451697 1582.97495643 -326.905282 1575.17477012 -345.92042542 1565.31265259 C-351.92740325 1562.19969494 -357.98199997 1559.20024842 -364.07421875 1556.2578125 C-365.39354904 1555.62039879 -365.39354904 1555.62039879 -366.73953247 1554.97010803 C-368.48638724 1554.12705493 -370.2334648 1553.28446329 -371.98077393 1552.44235229 C-404.25776191 1536.88405965 -404.25776191 1536.88405965 -413.83984375 1529.15234375 C-415.29157818 1528.01254955 -416.74472342 1526.87455015 -418.19921875 1525.73828125 C-418.90626953 1525.18366211 -419.61332031 1524.62904297 -420.34179688 1524.05761719 C-423.36877869 1521.71780328 -426.46704364 1519.48689714 -429.58984375 1517.27734375 C-430.15928711 1516.87378662 -430.72873047 1516.47022949 -431.31542969 1516.05444336 C-432.45052352 1515.25168661 -433.58625936 1514.44983684 -434.72265625 1513.64892578 C-443.28469643 1507.61318525 -451.77611789 1501.48434726 -460.21484375 1495.27734375 C-461.37922974 1494.42221191 -461.37922974 1494.42221191 -462.56713867 1493.54980469 C-464.05542517 1492.45225482 -465.54040679 1491.35020407 -467.02145386 1490.24290466 C-468.47426235 1489.15793975 -469.93188862 1488.07933995 -471.39781189 1487.01216125 C-478.28066129 1481.86673513 -484.23308563 1475.88966796 -490.26171875 1469.80078125 C-491.379868 1468.67889071 -492.4984679 1467.55744914 -493.61749268 1466.43643188 C-496.53964883 1463.50670357 -499.45575151 1460.57102384 -502.37054443 1457.63397217 C-505.33452609 1454.64948134 -508.30421102 1451.67067751 -511.2734375 1448.69140625 C-516.4953121 1443.45048441 -521.7122213 1438.20466543 -526.92547607 1432.95516968 C-528.64075004 1431.23057564 -530.36032558 1429.51025329 -532.08331299 1427.79336548 C-534.39291651 1425.47430957 -536.59478656 1423.09097714 -538.77734375 1420.65234375 C-539.48632812 1419.86214844 -540.1953125 1419.07195312 -540.92578125 1418.2578125 C-542.15167969 1416.87529297 -542.15167969 1416.87529297 -543.40234375 1415.46484375 C-543.94205811 1414.86599365 -544.48177246 1414.26714355 -545.0378418 1413.65014648 C-549.16885158 1409.0178916 -552.88535044 1404.21912336 -556.46484375 1399.15234375 C-557.60069822 1397.56188241 -558.73744716 1395.97205955 -559.875 1394.3828125 C-560.45523926 1393.57118652 -561.03547852 1392.75956055 -561.63330078 1391.92333984 C-564.5205904 1387.91078029 -567.46175756 1383.93842083 -570.40234375 1379.96484375 C-575.48693706 1373.08544026 -580.52970624 1366.17812519 -585.5078125 1359.22119141 C-588.23671352 1355.41774432 -591.00555019 1351.65889137 -593.87109375 1347.95703125 C-602.54902746 1336.66610199 -609.31368223 1324.87635029 -615.90478516 1312.27099609 C-618.44593488 1307.50934383 -621.19899639 1302.87890148 -623.98144531 1298.25537109 C-627.28614736 1292.74607339 -630.34899135 1287.11663575 -633.40234375 1281.46484375 C-633.95043701 1280.45591064 -634.49853027 1279.44697754 -635.06323242 1278.4074707 C-639.20747314 1270.77658877 -643.3199177 1263.12897431 -647.40234375 1255.46484375 C-647.81838867 1254.68383301 -648.23443359 1253.90282227 -648.66308594 1253.09814453 C-654.53669869 1241.97775781 -659.29168866 1230.42201693 -664.04296875 1218.78662109 C-665.9036005 1214.23996958 -667.7869321 1209.70285422 -669.67016602 1205.16552734 C-670.92040988 1202.14937322 -672.16556405 1199.13117835 -673.40907288 1196.11224365 C-675.61510521 1190.75884884 -677.84180374 1185.41537976 -680.10577393 1180.0861969 C-686.99035785 1163.86964868 -693.2810489 1147.88026656 -697.77783203 1130.8046875 C-698.59853545 1127.7297768 -699.51909614 1124.69089028 -700.46484375 1121.65234375 C-700.76777344 1120.67523437 -701.07070313 1119.698125 -701.3828125 1118.69140625 C-702.16875106 1116.20410644 -702.96402937 1113.72053559 -703.765625 1111.23828125 C-706.77432003 1101.882395 -709.56860579 1092.50436777 -712.04638672 1082.99243164 C-713.17807103 1078.71327617 -714.3815495 1074.48103734 -715.78515625 1070.28295898 C-719.41449232 1059.37417158 -721.97530622 1048.58067169 -723.93099976 1037.25567627 C-724.74597845 1032.53824505 -725.60170211 1027.828153 -726.453125 1023.1171875 C-726.61951981 1022.19095581 -726.78591461 1021.26472412 -726.95735168 1020.3104248 C-728.33452432 1012.69671561 -729.91072653 1005.14312218 -731.58984375 997.58984375 C-736.48595015 975.19875379 -739.933771 952.89164465 -742.06828594 930.08921432 C-742.83348464 921.95191798 -743.69181196 913.8330496 -744.6628418 905.71777344 C-747.98607262 877.53988617 -749.32891503 849.69854558 -749.22552109 821.33296585 C-749.21463089 817.96144521 -749.21319709 814.59001226 -749.21304321 811.21847534 C-749.17823588 772.31755395 -746.63021901 734.02615583 -741.91094971 695.42926025 C-740.73993218 685.80039225 -739.81894774 676.17102803 -739.02868652 666.50378799 C-738.04881538 654.53718187 -736.82047055 642.86602466 -734.08984375 631.15234375 C-733.77676933 629.73062635 -733.46597279 628.30840579 -733.15722656 626.88574219 C-732.5399478 624.05165972 -731.91322748 621.21999157 -731.27685547 618.39013672 C-730.24317408 613.77747547 -729.28111154 609.15101493 -728.33081055 604.52050781 C-727.87266543 602.28830742 -727.40915243 600.057203 -726.94067383 597.82714844 C-725.44011093 590.65624909 -724.01520076 583.47498901 -722.64547729 576.27786255 C-717.35642775 548.54702078 -711.27344728 521.93115764 -701.40234375 495.46484375 C-698.42866623 487.42074936 -695.75787595 479.39286522 -693.4609375 471.12988281 C-691.48763491 464.29795972 -689.17527124 457.57673285 -686.90234375 450.83984375 C-686.18774361 448.71110289 -685.47400229 446.58207545 -684.76034546 444.45301819 C-684.29496332 443.06716301 -683.82820108 441.68177047 -683.36001587 440.29685974 C-682.33415793 437.26077299 -681.32571611 434.22320362 -680.35693359 431.16821289 C-678.12756982 424.17303265 -675.30156869 417.71767669 -672.02734375 411.15234375 C-667.2081369 401.31576692 -662.62310331 391.40062619 -658.15234375 381.40234375 C-654.34129242 372.89003113 -650.51714189 364.40732304 -646.23071289 356.12060547 C-644.39064093 352.53635469 -642.69896188 348.91540762 -641.0859375 345.22265625 C-636.20681085 334.05655349 -630.88054424 323.92421781 -624.01708984 313.86621094 C-620.78598854 309.06108357 -617.70131962 304.16039534 -614.58984375 299.27734375 C-613.21369887 297.12489949 -611.83739674 294.97255575 -610.4609375 292.8203125 C-606.68726144 286.91279252 -602.917956 281.0025064 -599.15234375 275.08984375 C-598.58128906 274.19531494 -598.01023437 273.30078613 -597.421875 272.37915039 C-594.63977436 268.01417167 -591.88419724 263.63619126 -589.1796875 259.22265625 C-584.44434309 251.52503904 -579.85297977 244.25984052 -573.55078125 237.71875 C-571.16621273 235.21712084 -569.00849357 232.5928018 -566.83984375 229.90234375 C-563.47700046 225.74687189 -559.99837825 221.73716608 -556.421875 217.765625 C-554.24046198 215.28041751 -552.16404341 212.72759341 -550.08984375 210.15234375 C-546.8227844 206.12053385 -543.4342495 202.26182652 -539.90234375 198.46484375 C-534.02079303 192.13815815 -528.20142812 185.66347031 -523.40234375 178.46484375 C-522.74234375 178.46484375 -522.08234375 178.46484375 -521.40234375 178.46484375 C-521.16386719 177.89121094 -520.92539062 177.31757812 -520.6796875 176.7265625 C-519.13183449 173.98586864 -517.32925353 172.3542413 -514.96484375 170.27734375 C-514.06894531 169.48972656 -513.17304687 168.70210937 -512.25 167.890625 C-508.58837629 164.77146406 -504.86049853 161.7399802 -501.12109375 158.71484375 C-497.62326224 155.82008664 -494.28448971 152.76894836 -490.9296875 149.7109375 C-488.33271982 147.40296777 -485.66830362 145.20928512 -482.96484375 143.02734375 C-479.13778648 139.93335661 -475.45953502 136.73653825 -471.83984375 133.40234375 C-466.87438358 128.83948846 -461.72551509 124.60077716 -456.40234375 120.46484375 C-455.45367432 119.69575684 -455.45367432 119.69575684 -454.48583984 118.91113281 C-448.69888448 114.28002224 -442.63909003 110.3813701 -436.27734375 106.58984375 C-435.25600342 105.97471924 -434.23466309 105.35959473 -433.18237305 104.72583008 C-430.25898 102.96661806 -427.3313808 101.21463745 -424.40234375 99.46484375 C-423.11957821 98.69566837 -421.83699078 97.92619577 -420.5546875 97.15625 C-417.21484375 95.15234375 -417.21484375 95.15234375 -415.54321289 94.15551758 C-411.84591992 91.94698651 -408.16620767 89.71114934 -404.49531555 87.45896912 C-402.02592235 85.94423963 -399.55434997 84.43308084 -397.08285522 82.92178345 C-395.85913305 82.17206844 -394.63645538 81.42064526 -393.41494751 80.66732788 C-381.29471779 73.1940418 -369.05414571 67.11762608 -355.71484375 62.08984375 C-352.95979772 61.0485598 -350.20600492 60.0040282 -347.453125 58.95703125 C-346.72964874 58.68234009 -346.00617249 58.40764893 -345.26077271 58.12463379 C-339.67401032 55.98835077 -334.15144404 53.715823 -328.6328125 51.41015625 C-306.92244957 42.41255437 -285.87304378 36.17913068 -262.71289062 32.21142578 C-257.61482342 31.3378233 -252.5411495 30.34825473 -247.46582031 29.35180664 C-244.33250003 28.73789611 -241.1962496 28.14207742 -238.05859375 27.55078125 C-234.4256261 26.86130397 -230.80215329 26.14034591 -227.18359375 25.37890625 C-217.0395527 23.24779688 -206.93462051 21.64754663 -196.6484375 20.37890625 C-187.88561964 19.29270201 -179.14131201 18.07150733 -170.39404297 16.86776733 C-142.04974625 12.96889096 -142.04974625 12.96889096 -129.45727539 11.49023438 C-117.65083178 10.07706616 -105.89539763 8.2075336 -94.16265869 6.28453064 C-68.75880138 2.15130177 -43.85532649 0.52399754 -18.12609863 0.52336121 C-12.06712196 0.51468959 -6.048734 0.33516041 0 0 Z " fill="#D6D6D6" transform="translate(1520.40234375,1519.53515625)"/>
<path d="M0 0 C3.42295878 0.48767824 6.84256655 0.87019374 10.28295898 1.20629883 C75.3770777 7.65721174 138.60509813 42.91418862 189.26611328 82.46533203 C190.36658622 83.30920273 191.46816502 84.15163308 192.57080078 84.99267578 C203.82581973 93.57894483 214.6770365 102.5985943 225.38964844 111.84765625 C227.33846667 113.52770694 229.29229094 115.20180847 231.24658203 116.87548828 C232.56575 118.0094196 233.88476434 119.14352967 235.20361328 120.27783203 C235.80592773 120.79249023 236.40824219 121.30714844 237.02880859 121.83740234 C240.72412064 125.02555479 244.21877171 128.34862155 247.62915039 131.84033203 C249.32372451 133.52252224 251.08368169 135.09316473 252.89111328 136.65283203 C261.30448805 143.92264129 269.4034134 151.51932646 277.20751953 159.43798828 C279.81593292 162.00680526 282.55032659 164.3981279 285.34423828 166.76220703 C285.97845703 167.32423828 286.61267578 167.88626953 287.26611328 168.46533203 C288.11995605 169.17270508 288.97379883 169.88007812 289.85351562 170.60888672 C292.94169655 174.26520294 292.86138862 176.13612508 292.78955078 180.87158203 C292.78484772 181.59156372 292.78014465 182.31154541 292.77529907 183.05334473 C292.75404855 185.35832851 292.69778966 187.66097706 292.64111328 189.96533203 C292.62457358 191.45098609 292.61023399 192.93666634 292.59814453 194.42236328 C292.49990477 203.27570177 292.11577301 212.10943461 291.6686554 220.95100403 C291.0531945 233.34532178 290.7104 245.74956737 290.32861328 258.15283203 C290.26532552 260.18324414 290.20176556 262.21364759 290.13816833 264.24405003 C289.84355548 273.65102373 289.55407079 283.05815251 289.26611328 292.46533203 C289.24271126 293.22973602 289.21930923 293.99414001 289.19519806 294.78170776 C288.54554786 316.00938285 287.9031495 337.23727474 287.26611328 358.46533203 C284.68568914 359.7555441 282.68590509 359.68684092 279.79663086 359.80664062 C278.63642929 359.85705002 277.47622772 359.90745941 276.28086853 359.95939636 C274.36510765 360.03581108 274.36510765 360.03581108 272.41064453 360.11376953 C271.06061475 360.17101601 269.71060386 360.22870959 268.36061096 360.28681946 C265.45646967 360.41104657 262.55223302 360.53257368 259.64788818 360.65194702 C252.70781872 360.93725998 245.76825824 361.23453909 238.82868195 361.53156853 C237.23554485 361.59969595 235.64240002 361.66764301 234.04924774 361.73541451 C222.48540229 362.22760223 210.92406863 362.75933226 199.36376953 363.32861328 C197.9297748 363.39890214 196.49577924 363.46917408 195.06178284 363.53942871 C189.59851437 363.80761836 184.13532037 364.07692843 178.67251587 364.35443115 C170.53851827 364.76732704 162.40442363 365.1479606 154.26611328 365.46533203 C153.31743378 365.50466858 152.36875427 365.54400513 151.3913269 365.58453369 C148.86641524 365.67992108 146.34302618 365.7455141 143.81689453 365.79736328 C143.11023651 365.82593918 142.40357849 365.85451508 141.67550659 365.88395691 C136.88511614 365.92823445 134.52173755 364.73725329 131.07861328 361.46533203 C129.7643897 359.83266197 128.48990877 358.16683717 127.26611328 356.46533203 C126.21643059 355.24584773 125.1541231 354.03710031 124.07861328 352.84033203 C123.51529297 352.18677734 122.95197266 351.53322266 122.37158203 350.85986328 C114.37045694 341.76025348 105.94156224 333.04686325 97.39111328 324.46533203 C96.35784912 323.42517944 96.35784912 323.42517944 95.30371094 322.36401367 C91.33219281 318.40443781 87.24460647 314.6467977 82.99853516 310.98388672 C81.04844371 309.27453373 79.23822152 307.47106671 77.45361328 305.59033203 C73.66398093 301.74928993 69.59420761 298.39262193 65.38720703 295.02001953 C62.42470466 292.62431512 59.56433416 290.12141253 56.70336914 287.60595703 C50.98608644 282.57964775 45.23727912 277.80846725 39.00439453 273.42236328 C35.87784679 271.18784057 32.85535151 268.83160181 29.82861328 266.46533203 C23.83891602 261.81637495 17.63856164 257.57684859 11.26611328 253.46533203 C10.13060784 252.72718732 8.99519398 251.98890173 7.85986328 251.25048828 C4.90202176 249.33198854 1.93284003 247.43199845 -1.04296875 245.54150391 C-2.58804029 244.55815488 -4.12803457 243.56683994 -5.66748047 242.57470703 C-56.12516875 210.2599157 -56.12516875 210.2599157 -112.73388672 197.46533203 C-116.15049339 198.88672352 -116.15049339 198.88672352 -119.47998047 200.97314453 C-120.09478775 201.33624725 -120.70959503 201.69934998 -121.34303284 202.07345581 C-122.63716022 202.8414857 -123.92699506 203.61679024 -125.21264648 204.39892578 C-127.15420819 205.57988317 -129.10734118 206.73922472 -131.06396484 207.89501953 C-139.98620382 213.20260821 -148.18297481 219.0054918 -156.04638672 225.77783203 C-160.08607151 229.2315367 -164.15565801 232.63240445 -168.29638672 235.96533203 C-178.64799508 244.44164902 -187.62484322 253.32822864 -196.16894531 263.60205078 C-198.34409246 266.19186717 -200.56920249 268.73654172 -202.79541016 271.2824707 C-205.45744092 274.3297954 -208.09708489 277.39617827 -210.73388672 280.46533203 C-211.47509766 281.32513672 -212.21630859 282.18494141 -212.97998047 283.07080078 C-218.0590793 289.17185109 -222.16032605 295.76569678 -226.29638672 302.52001953 C-228.36370238 305.89071312 -230.51966576 309.18864215 -232.73388672 312.46533203 C-241.66567171 325.7989058 -249.45491155 339.30741834 -256.55810547 353.70214844 C-257.98765275 356.59796083 -259.430065 359.4870835 -260.87451172 362.37548828 C-269.12984864 378.94208237 -276.02886208 395.63552253 -282.28491211 413.05273438 C-283.42476686 416.22473832 -284.57201217 419.39399781 -285.72021484 422.56298828 C-286.45828121 424.60840387 -287.19592615 426.65397158 -287.93310547 428.69970703 C-288.43942757 430.09851105 -288.43942757 430.09851105 -288.95597839 431.52557373 C-293.84027349 445.15446002 -297.41870958 459.14850404 -301.04638672 473.15283203 C-301.31644531 474.18988281 -301.58650391 475.22693359 -301.86474609 476.29541016 C-302.46652184 478.61615353 -303.06218313 480.9384869 -303.65332031 483.26196289 C-304.44236334 486.35877142 -305.26672383 489.4447412 -306.09960938 492.5300293 C-310.50456931 509.13411489 -313.40894011 525.89086727 -316.128479 542.83129883 C-316.60250671 545.76094147 -317.09049671 548.68819201 -317.57804108 551.61561012 C-320.13548233 567.00567948 -322.433932 582.32831915 -323.48202515 597.90682983 C-323.728202 601.38501383 -324.006868 604.85915456 -324.29230404 608.33427143 C-326.41681117 634.35376047 -327.26674718 660.23289866 -327.18011093 686.33503723 C-327.17121314 689.27263996 -327.16775005 692.21021255 -327.16519165 695.14782715 C-327.12855008 722.56822727 -326.48883826 749.71161975 -323.25097656 776.96972656 C-322.73099974 781.37723403 -322.32187288 785.78999768 -321.94091797 790.21142578 C-320.84609906 802.72799885 -319.32866203 814.94278592 -316.63623047 827.21923828 C-315.82337917 830.93029645 -315.23074662 834.63461136 -314.73388672 838.40283203 C-313.59898568 846.955122 -311.8921368 855.39636538 -310.22900391 863.85839844 C-309.89387177 865.62296498 -309.57732156 867.39114505 -309.27783203 869.16210938 C-308.14252585 875.85137149 -306.46261414 882.22953342 -304.48388672 888.71533203 C-301.78474134 897.73502902 -299.27674599 906.77746453 -297.03955078 915.92333984 C-293.2225162 931.09448328 -287.63591668 945.73848756 -281.92138672 960.27783203 C-281.61475098 961.06036346 -281.30811523 961.8428949 -280.9921875 962.6491394 C-278.92222363 967.92766799 -276.83433162 973.19886493 -274.73388672 978.46533203 C-274.30672363 979.53847656 -273.87956055 980.61162109 -273.43945312 981.71728516 C-265.07022441 1002.53669635 -254.48665867 1022.4384285 -242.83520508 1041.59643555 C-241.6117369 1043.67261576 -240.47182416 1045.78591082 -239.32763672 1047.90673828 C-236.81229145 1052.46250687 -233.89591364 1056.60474993 -230.79638672 1060.77783203 C-227.14957926 1065.74103004 -223.53704807 1070.71720789 -220.05419922 1075.79736328 C-219.14335571 1077.12223755 -219.14335571 1077.12223755 -218.21411133 1078.47387695 C-217.05463248 1080.1661192 -215.90135915 1081.86263738 -214.75561523 1083.56420898 C-211.4172536 1088.41896544 -207.84509057 1092.59919196 -203.57836914 1096.66650391 C-201.72284625 1098.47609923 -200.03615818 1100.36567947 -198.35888672 1102.34033203 C-194.82726457 1106.45249481 -190.99727718 1110.21906584 -187.14013672 1114.02392578 C-185.06652479 1116.12783399 -183.13634547 1118.27090573 -181.23388672 1120.52783203 C-174.93910791 1127.83742331 -167.5660233 1133.73898772 -159.72216797 1139.29736328 C-155.72919739 1142.19422429 -151.87633905 1145.25559667 -148.03173828 1148.34570312 C-146.28137314 1149.74028188 -144.51231552 1151.10672377 -142.73388672 1152.46533203 C-142.07300049 1152.97854004 -141.41211426 1153.49174805 -140.73120117 1154.02050781 C-133.18611452 1159.60626513 -124.90759447 1163.72333301 -116.5559082 1167.94628906 C-114.03769465 1169.21972753 -111.52505586 1170.50365609 -109.01318359 1171.78955078 C-107.39565563 1172.61437888 -105.77782738 1173.43861842 -104.15966797 1174.26220703 C-103.41783768 1174.6403656 -102.67600739 1175.01852417 -101.91169739 1175.40814209 C-91.30720798 1180.76420233 -83.90516448 1183.14288046 -72.10888672 1179.65283203 C-71.36727295 1179.43908936 -70.62565918 1179.22534668 -69.86157227 1179.00512695 C-49.64073613 1172.98109038 -29.80358515 1165.52728578 -10.62402344 1156.75537109 C-7.44521485 1155.33648069 -4.23660773 1154.00479463 -1.01904297 1152.67626953 C1.20127316 1151.73157738 3.42133167 1150.78627947 5.64111328 1149.84033203 C7.21300415 1149.21191406 7.21300415 1149.21191406 8.81665039 1148.57080078 C9.77708252 1148.15185547 10.73751465 1147.73291016 11.72705078 1147.30126953 C13.00781494 1146.76832275 13.00781494 1146.76832275 14.31445312 1146.22460938 C17.82434571 1143.0607007 17.21737131 1137.28404751 17.48680115 1132.75845337 C17.55436363 1130.84532852 17.55436363 1130.84532852 17.62329102 1128.89355469 C17.64952765 1128.17770832 17.67576429 1127.46186195 17.70279598 1126.72432327 C17.78855632 1124.35945636 17.86919467 1121.99444547 17.94970703 1119.62939453 C18.00978972 1117.93815157 18.07014995 1116.24691845 18.13076782 1114.55569458 C18.29261236 1110.01168856 18.44974833 1105.46753093 18.60585403 1100.92332458 C18.736894 1097.12588074 18.87076331 1093.32853849 19.0045042 1089.53118896 C19.90005563 1064.0705078 20.7072924 1038.60788174 21.44696045 1013.14224243 C21.9832099 994.70520188 22.64440434 976.27875382 23.45776367 957.85189819 C24.12588942 942.69693308 24.61486377 927.54528582 24.92456055 912.37866211 C25.13651526 902.38864839 25.61227286 892.4362022 26.26611328 882.46533203 C25.70757156 882.48187332 25.14902985 882.49841461 24.57356262 882.51545715 C14.66763875 882.66758301 4.83358626 881.79432994 -5.03466797 881.03955078 C-7.0353905 880.88946037 -9.03613878 880.73971277 -11.03691101 880.59028625 C-16.30790844 880.19561042 -21.57851439 879.7959209 -26.84906006 879.39526367 C-32.07148752 878.99928234 -37.29431385 878.60863737 -42.51708984 878.21728516 C-54.59021821 877.31119168 -66.66227422 876.39138321 -78.73388672 875.46533203 C-79.6838427 875.39258308 -80.63379868 875.31983414 -81.6125412 875.24488068 C-87.02796854 874.82997612 -92.44317373 874.41236296 -97.85805321 873.99036598 C-99.48995569 873.863432 -101.12191374 873.73721005 -102.75393105 873.61176109 C-104.98595448 873.43992481 -107.21773059 873.26517127 -109.44946289 873.08959961 C-110.69491379 872.99262283 -111.94036469 872.89564606 -113.22355652 872.79573059 C-116.74894372 872.46391484 -120.23328113 871.99533767 -123.73388672 871.46533203 C-123.8142775 858.66707535 -123.59567477 845.91025639 -123.11279297 833.12158203 C-123.04767099 831.33338336 -122.98281196 829.5451751 -122.91819763 827.75695801 C-122.78327946 824.04264305 -122.64611068 820.32842107 -122.50708008 816.61425781 C-122.33111599 811.91194825 -122.15952026 807.20949248 -121.98947239 802.50696564 C-121.85604296 798.82435408 -121.72094434 795.14180524 -121.58530998 791.45927429 C-121.52159721 789.72777041 -121.4582144 787.99625434 -121.39520454 786.26472473 C-121.03913464 776.52273975 -120.62351939 766.78760621 -120.07583714 757.05430603 C-119.5705716 747.94534324 -119.3870097 738.82749397 -119.18164062 729.70776367 C-118.57562276 703.30706808 -118.57562276 703.30706808 -116.73388672 701.46533203 C-114.54495412 701.34075443 -112.35197377 701.28722668 -110.15966797 701.26000977 C-109.46568846 701.25012716 -108.77170895 701.24024456 -108.05669975 701.23006248 C-105.71996441 701.19815825 -103.3832098 701.1735038 -101.04638672 701.14892578 C-99.38680592 701.12800533 -97.72722953 701.10673205 -96.06765747 701.08512878 C-90.62314555 701.0164431 -85.178541 700.95891695 -79.73388672 700.90283203 C-78.80532616 700.89308098 -77.87676559 700.88332993 -76.92006683 700.87328339 C-65.35292122 700.75199856 -53.7856914 700.64451785 -42.21834755 700.54412079 C-35.93462186 700.48837036 -29.65116694 700.41937342 -23.36767578 700.34179688 C11.31226745 699.91948934 45.4112956 699.84936706 79.83081055 704.84155273 C86.4769501 705.79642288 93.15087186 706.49477278 99.82675171 707.20507812 C102.39329421 707.47890088 104.95925498 707.75774264 107.52514648 708.03759766 C113.66735493 708.70673959 119.81038467 709.36812805 125.95361328 710.02783203 C127.10033508 710.15105835 128.24705688 710.27428467 129.42852783 710.40124512 C157.19953522 713.38125514 184.98272281 716.24416728 212.76640415 719.10319233 C216.45193689 719.48251681 220.13741984 719.86232378 223.82290077 720.24215126 C226.34616461 720.50194842 228.86951269 720.76091466 231.39286804 721.01982117 C246.73836939 722.59839354 262.06741617 724.31322175 277.39111328 726.09033203 C279.50943685 726.33564008 281.62776391 726.580918 283.74609375 726.82617188 C285.58610026 727.03922526 287.42610677 727.25227865 289.26611328 727.46533203 C289.50269821 751.77683212 288.85402134 776.02298818 287.99503708 800.31754303 C287.81767422 805.36975748 287.64684568 810.42219325 287.4753418 815.47460938 C287.16985142 824.4502497 286.85966193 833.42571843 286.54678249 842.40110397 C286.13190427 854.30594803 285.72614942 866.21109929 285.32171631 878.11630249 C285.24283412 880.43664142 285.16377258 882.75697425 285.08453369 885.07730103 C284.44285472 903.87222642 283.84331094 922.66833307 283.26611328 941.46533203 C283.24556885 942.13358631 283.22502441 942.80184059 283.20385742 943.490345 C282.72144833 959.18700969 282.25180282 974.88400581 281.79825974 990.58153152 C281.66538941 995.17200041 281.53128367 999.76243345 281.3972683 1004.35286903 C281.26997849 1008.72081417 281.14518232 1013.08882107 281.02239132 1017.45689487 C280.96412719 1019.51507072 280.90462937 1021.57320675 280.84461975 1023.6313324 C280.77210362 1026.11976777 280.70146388 1028.60825902 280.63328552 1031.09681702 C280.45506497 1037.10782663 280.17222511 1043.09569163 279.7644043 1049.09570312 C279.19767751 1057.57871307 279.02688697 1066.05740775 278.87796021 1074.55651665 C278.54162999 1093.34359832 277.98585754 1112.12057685 277.32861328 1130.89892578 C277.28601379 1132.11878803 277.24341431 1133.33865028 277.19952393 1134.59547806 C276.93663473 1142.10158559 276.66980437 1149.60754903 276.40148926 1157.11346436 C276.04216092 1167.17157969 275.68606924 1177.22980903 275.33270264 1187.28813553 C275.2470428 1189.72562098 275.16114822 1192.16309819 275.07501221 1194.60056686 C274.48476231 1211.34178542 273.96048016 1228.08285943 273.60766602 1244.83091736 C273.52307086 1248.71022006 273.40484123 1252.58753827 273.26611328 1256.46533203 C273.22800537 1257.6278952 273.18989746 1258.79045837 273.15063477 1259.98825073 C273.09335205 1261.05890778 273.03606934 1262.12956482 272.97705078 1263.23266602 C272.93241699 1264.1557103 272.8877832 1265.07875458 272.84179688 1266.0297699 C271.73838242 1270.69801906 267.95571664 1272.77986028 264.10400391 1275.25878906 C261.94382106 1276.67691122 259.84984981 1278.17348819 257.75048828 1279.68017578 C247.13474785 1287.27286999 236.3056173 1294.5060592 225.26611328 1301.46533203 C224.03441406 1302.24457031 224.03441406 1302.24457031 222.77783203 1303.03955078 C211.47468335 1310.17392199 200.06031908 1317.0097034 188.29931641 1323.36279297 C186.41100119 1324.38676409 184.53285775 1325.42704691 182.65673828 1326.47314453 C155.28663605 1341.59411668 126.06302175 1352.2690435 96.26611328 1361.46533203 C95.39100098 1361.73893555 94.51588867 1362.01253906 93.61425781 1362.29443359 C84.73494139 1365.06499933 75.86687803 1367.39956329 66.69726562 1369.02783203 C63.79583548 1369.54996126 60.90079744 1370.10350684 58.00439453 1370.65283203 C33.77614361 1375.1499983 9.64443755 1377.73339053 -14.99560547 1377.75439453 C-15.85590803 1377.75578367 -16.71621059 1377.75717281 -17.60258293 1377.75860405 C-40.76423344 1377.74642679 -63.81719831 1376.00053886 -86.90258789 1374.27868652 C-91.49939276 1373.93891118 -96.09707387 1373.61198829 -100.69484043 1373.28552341 C-110.19909837 1372.61045322 -119.70284605 1371.92778169 -129.20483398 1371.22143555 C-130.4817083 1371.12864571 -130.4817083 1371.12864571 -131.78437805 1371.03398132 C-136.79355254 1370.65732091 -141.75282664 1370.11529372 -146.73388672 1369.46533203 C-148.08786216 1369.37051706 -149.44358547 1369.29419567 -150.80029297 1369.25439453 C-151.87283325 1369.21499756 -151.87283325 1369.21499756 -152.96704102 1369.17480469 C-153.7357251 1369.14692871 -154.50440918 1369.11905273 -155.29638672 1369.09033203 C-165.20618699 1368.66170907 -175.04516747 1367.72400753 -184.90527344 1366.66162109 C-192.19082463 1365.89494913 -199.40904433 1365.36916328 -206.73388672 1365.19970703 C-227.86169851 1364.58098958 -247.53629534 1360.82275538 -267.83047867 1355.08271027 C-269.75968465 1354.5381912 -271.69127299 1354.00213548 -273.62289429 1353.46624756 C-290.1311698 1348.8323881 -305.19733878 1342.91606834 -320.28918457 1334.77217102 C-323.79304859 1332.89914689 -327.35434112 1331.1513005 -330.92138672 1329.40283203 C-332.82050532 1328.45048068 -334.71696421 1327.49306088 -336.61279297 1326.53417969 C-338.15217262 1325.75846558 -339.69419422 1324.98798729 -341.23779297 1324.22070312 C-351.9557512 1318.87927525 -361.70049695 1313.5111209 -370.96679688 1305.87988281 C-374.56859052 1302.99665645 -378.32112131 1300.31074134 -382.04638672 1297.59033203 C-384.34784578 1295.90648166 -386.64577443 1294.21896425 -388.93359375 1292.51660156 C-390.9643022 1291.02906779 -393.00451227 1289.5861562 -395.07714844 1288.16015625 C-407.91940915 1279.14140393 -418.71241811 1268.0247399 -429.69281006 1256.89764404 C-431.77456397 1254.79395871 -433.86772145 1252.7018041 -435.9610672 1250.60966301 C-437.98103092 1248.58915771 -439.9957614 1246.56350408 -442.00871277 1244.53601456 C-442.96762987 1243.57074126 -443.92775586 1242.60666733 -444.88911438 1241.64382553 C-446.21678153 1240.31184645 -447.53706055 1238.97251525 -448.85693359 1237.6328125 C-449.98367493 1236.49463577 -449.98367493 1236.49463577 -451.13317871 1235.33346558 C-452.73388672 1233.46533203 -452.73388672 1233.46533203 -452.73388672 1231.46533203 C-453.72388672 1231.13533203 -454.71388672 1230.80533203 -455.73388672 1230.46533203 C-457.13745117 1228.90917969 -457.13745117 1228.90917969 -458.59716797 1226.87939453 C-459.14719482 1226.12303711 -459.69722168 1225.36667969 -460.26391602 1224.58740234 C-460.85213135 1223.76336914 -461.44034668 1222.93933594 -462.04638672 1222.09033203 C-463.30920119 1220.34799494 -464.572228 1218.60581174 -465.83544922 1216.86376953 C-466.4815918 1215.96754883 -467.12773437 1215.07132813 -467.79345703 1214.14794922 C-470.8067867 1209.98206265 -473.86557361 1205.85009136 -476.92138672 1201.71533203 C-478.08568881 1200.1334771 -479.24975502 1198.55144852 -480.41357422 1196.96923828 C-482.51389743 1194.11602625 -484.62282606 1191.26963454 -486.74169922 1188.43017578 C-496.48190245 1175.3424563 -504.87160179 1161.75438719 -512.73388672 1147.46533203 C-514.33119326 1144.57254821 -515.92895699 1141.68001799 -517.52711487 1138.78770447 C-519.28388624 1135.60715738 -521.03758554 1132.42498084 -522.78540039 1129.23950195 C-527.13644119 1121.31447603 -527.13644119 1121.31447603 -531.63623047 1113.47314453 C-537.65216238 1103.16160186 -542.13837018 1092.52003556 -546.40966797 1081.37548828 C-548.28165231 1076.51588053 -550.36805127 1071.7928955 -552.55297852 1067.06713867 C-554.33177881 1063.14804114 -555.91334614 1059.15897474 -557.48388672 1055.15283203 C-559.49882088 1050.01386512 -561.51402756 1044.89260195 -563.79248047 1039.86376953 C-571.56263099 1022.40571388 -576.25554497 1003.9650103 -581.40048218 985.60862732 C-583.78662003 977.15536778 -586.4260786 968.79130204 -589.10812378 960.42819214 C-590.44018651 956.24984817 -591.69839327 952.0516834 -592.92138672 947.84033203 C-593.15535156 947.06689453 -593.38931641 946.29345703 -593.63037109 945.49658203 C-595.55111515 938.871867 -596.73240989 932.15715138 -597.88793945 925.36816406 C-598.81844526 919.91555506 -599.83389149 914.47972573 -600.85498047 909.04345703 C-601.04281601 908.04202667 -601.23065155 907.04059631 -601.42417908 906.00881958 C-601.81097285 903.94867987 -602.19814805 901.88861174 -602.58569336 899.82861328 C-603.16792452 896.73373554 -603.74887872 893.63862031 -604.32958984 890.54345703 C-604.51977692 889.53148254 -604.70996399 888.51950806 -604.90591431 887.47686768 C-605.28934353 885.4340996 -605.67147998 883.39108844 -606.05233765 881.34783936 C-606.93084581 876.65059478 -607.82886246 871.96078613 -608.8046875 867.28271484 C-611.84439389 852.52519557 -613.32923554 837.70601706 -614.73388672 822.71533203 C-615.08960186 819.02686979 -615.44802253 815.33867654 -615.8065033 811.65048218 C-616.05330974 809.08387272 -616.29550291 806.51681613 -616.53346252 803.94937134 C-617.13173201 797.50249865 -617.76734764 791.06488391 -618.51697254 784.63363457 C-621.794449 756.46176931 -622.41676895 728.52598211 -622.30888367 700.17897034 C-622.29620238 696.53739641 -622.29067712 692.89586535 -622.28649902 689.25427246 C-622.23149818 654.97712216 -621.30299204 621.1917547 -617.35253906 587.12548828 C-616.75775359 581.89111068 -616.3478626 576.658852 -616.00341797 571.40283203 C-613.825348 539.84424925 -607.6373959 508.81018678 -601.94873047 477.73486328 C-601.8078941 476.96549501 -601.66705772 476.19612675 -601.52195358 475.40344429 C-596.28583373 446.87084856 -596.28583373 446.87084856 -593.74560547 437.88330078 C-593.56635025 437.24213318 -593.38709503 436.60096558 -593.20240784 435.94036865 C-592.6145275 433.84283982 -592.01853408 431.74774002 -591.42138672 429.65283203 C-590.52275633 426.48137922 -589.62636223 423.30929601 -588.72998047 420.13720703 C-588.49187653 419.29709579 -588.25377258 418.45698456 -588.00845337 417.59141541 C-586.39189169 411.86664009 -584.83099162 406.12878421 -583.2973938 400.3812561 C-576.97086903 376.67854405 -570.17356362 353.68961477 -560.51950073 331.12420654 C-558.10771734 325.45338523 -555.88792765 319.72042325 -553.70654297 313.95751953 C-545.44953181 292.23064415 -536.23327173 271.66640435 -524.90185547 251.37402344 C-521.70495237 245.63668574 -518.64774676 239.82508739 -515.57052612 234.02304077 C-513.47919751 230.09171996 -511.35988495 226.17545742 -509.2421875 222.25830078 C-508.32779643 220.56509362 -507.41644251 218.87023502 -506.51074219 217.17236328 C-501.92297131 208.58321247 -496.51964183 200.96698813 -490.60888672 193.26611328 C-487.49079943 189.18681874 -484.6634602 184.94726373 -481.85107422 180.65283203 C-460.80388526 148.96555123 -460.80388526 148.96555123 -449.73388672 138.46533203 C-449.07388672 138.46533203 -448.41388672 138.46533203 -447.73388672 138.46533203 C-447.51732422 137.92005859 -447.30076172 137.37478516 -447.07763672 136.81298828 C-445.28250936 133.67673379 -442.82066211 131.37931855 -440.23388672 128.90283203 C-437.45016916 126.2162209 -434.8949545 123.7069337 -432.73388672 120.46533203 C-432.07388672 120.46533203 -431.41388672 120.46533203 -430.73388672 120.46533203 C-430.46294189 119.86841553 -430.19199707 119.27149902 -429.9128418 118.65649414 C-428.74951754 116.49438289 -427.61462218 115.11439218 -425.87060547 113.40673828 C-425.31308594 112.85566406 -424.75556641 112.30458984 -424.18115234 111.73681641 C-423.31006836 110.89086914 -423.31006836 110.89086914 -422.42138672 110.02783203 C-421.85226563 109.46773437 -421.28314453 108.90763672 -420.69677734 108.33056641 C-419.57055755 107.22244889 -418.4420049 106.11669692 -417.31103516 105.01342773 C-415.91472803 103.64284206 -414.53945365 102.25090085 -413.16748047 100.85595703 C-406.3369737 94.14605311 -398.696171 88.34278691 -390.91357422 82.79345703 C-386.78479738 79.77042141 -382.76375476 76.61836709 -378.73388672 73.46533203 C-377.15739928 72.23964 -375.58058402 71.01436948 -374.00341797 69.78955078 C-371.61222667 67.93250111 -369.23394372 66.06496841 -366.87060547 64.17236328 C-357.96478795 57.28349327 -347.75147808 52.50860508 -337.73388672 47.46533203 C-336.64769043 46.91594971 -336.64769043 46.91594971 -335.53955078 46.35546875 C-332.2979698 44.71741076 -329.04889153 43.09700516 -325.78857422 41.49658203 C-322.88105469 40.06069929 -320.02638223 38.54850568 -317.17919922 36.99658203 C-305.16729813 30.55001229 -293.24894196 26.71341851 -280.06835938 23.35693359 C-276.64899213 22.44263215 -273.27939196 21.42167745 -269.90185547 20.36376953 C-268.15485352 19.82743896 -268.15485352 19.82743896 -266.37255859 19.28027344 C-264.20276915 18.61073315 -262.03778625 17.92519668 -259.88037109 17.21679688 C-247.17357563 13.38555302 -233.88797746 12.69522178 -220.73388672 11.46533203 C-218.15399433 11.21691442 -215.57416049 10.96788797 -212.99438477 10.71826172 C-205.66718121 10.01424174 -198.33819232 9.33080014 -191.00854492 8.65283203 C-187.64863777 8.341677 -184.28892415 8.0284474 -180.92919922 7.71533203 C-176.90615944 7.34044609 -172.88308673 6.96593442 -168.85983276 6.59335327 C-162.02289565 5.95990948 -155.1866838 5.31975834 -148.3515625 4.66699219 C-133.28085549 3.23024414 -118.21134856 1.89952043 -103.10888672 0.84033203 C-100.53229739 0.6586837 -97.9558109 0.47591504 -95.37954712 0.28970337 C-93.81705655 0.17679731 -92.25438377 0.06636995 -90.6914978 -0.04092407 C-86.65140033 -0.33246667 -82.72286977 -0.84560596 -78.73388672 -1.53466797 C-51.9089903 -4.31115198 -26.65195045 -3.97311817 0 0 Z " fill="#D9D9D9" transform="translate(2570.73388671875,1753.53466796875)"/>
<path d="M0 0 C0 3 0 3 -1.8359375 5.17651367 C-2.67382812 5.99869385 -3.51171875 6.82087402 -4.375 7.66796875 C-5.27734375 8.56064453 -6.1796875 9.45332031 -7.109375 10.37304688 C-8.0727573 11.31136157 -9.03630108 12.2495105 -10 13.1875 C-10.96422346 14.13667769 -11.92777392 15.08653956 -12.890625 16.03710938 C-15.25386746 18.36490319 -17.62381482 20.68543133 -20 23 C-20.66 22.67 -21.32 22.34 -22 22 C-14.66666667 14.66666667 -7.33333333 7.33333333 0 0 Z " fill="#BEBEBF" transform="translate(2162,1850)"/>
<path d="M0 0 C0.33 0.66 0.66 1.32 1 2 C-0.09346881 3.34212062 -1.2001575 4.67347975 -2.3125 6 C-3.23482422 7.11375 -3.23482422 7.11375 -4.17578125 8.25 C-6 10 -6 10 -9 10 C-7.71937515 8.2925002 -6.38232443 6.62626404 -5 5 C-4.34 5 -3.68 5 -3 5 C-2.690625 4.360625 -2.38125 3.72125 -2.0625 3.0625 C-1 1 -1 1 0 0 Z " fill="#BABABC" transform="translate(2126,1887)"/>
</svg>
